<?xml version="1.0" encoding="UTF-8" standalone="no"?>
<!-- Created with Inkscape (http://www.inkscape.org/) -->

<svg
   version="1.1"
   id="svg641"
   width="635.13306"
   height="142.56566"
   viewBox="0 0 635.13306 142.56566"
   sodipodi:docname="goodreads_new.svg"
   inkscape:version="1.2.2 (b0a8486541, 2022-12-01)"
   xmlns:inkscape="http://www.inkscape.org/namespaces/inkscape"
   xmlns:sodipodi="http://sodipodi.sourceforge.net/DTD/sodipodi-0.dtd"
   xmlns="http://www.w3.org/2000/svg"
   xmlns:svg="http://www.w3.org/2000/svg">
  <defs
     id="defs645" />
  <sodipodi:namedview
     id="namedview643"
     pagecolor="#ffffff"
     bordercolor="#666666"
     borderopacity="1.0"
     inkscape:showpageshadow="2"
     inkscape:pageopacity="0.0"
     inkscape:pagecheckerboard="0"
     inkscape:deskcolor="#d1d1d1"
     showgrid="false"
     inkscape:zoom="1.7904762"
     inkscape:cx="223.125"
     inkscape:cy="62.832447"
     inkscape:window-width="2494"
     inkscape:window-height="1371"
     inkscape:window-x="66"
     inkscape:window-y="32"
     inkscape:window-maximized="1"
     inkscape:current-layer="g647" />
  <g
     inkscape:groupmode="layer"
     inkscape:label="Image"
     id="g647"
     transform="translate(-100.11268,-97.300179)">
    <path
       style="fill:#000000;stroke-width:1.33333"
       d="m 103,237.99424 c -3.24342,-2.31953 -3.676463,-4.19761 -1.68957,-7.32757 1.0491,-1.65264 5.30324,-2 24.49395,-2 21.12939,0 23.48393,-0.23391 26.10201,-2.59311 3.62717,-3.26849 3.10449,-7.05419 -1.44068,-10.43463 -3.17895,-2.36432 -5.56428,-2.61208 -23.72438,-2.4642 -20.00083,0.16287 -20.22217,0.13227 -23.61469,-3.26021 -4.361519,-4.36152 -3.611319,-9.19987 2.89619,-18.67876 5.06931,-7.384 5.78204,-11.29795 2.54639,-13.98331 -1.1536,-0.9574 -3.38421,-4.18086 -4.95691,-7.16325 -3.679207,-6.97705 -3.861662,-20.59155 -0.36751,-27.42253 7.97221,-15.58548 25.91993,-23.53121 40.7552,-18.04297 3.3,1.22082 6.98891,2.53392 8.19757,2.91799 1.64896,0.52399 3.45464,-1.69389 7.23303,-8.88419 6.47025,-12.3129 12.49204,-14.75159 17.51107,-7.09158 2.93232,4.47528 0.98885,8.10305 -8.17524,15.2603 -4.0882,3.19293 -7.4331,6.27609 -7.4331,6.85147 0,0.57538 1.46502,3.28328 3.25559,6.01756 13.45609,20.54796 0.65163,48.05138 -23.53284,50.54743 -3.88831,0.40131 -9.36136,0.0969 -12.16233,-0.67649 -2.80097,-0.77339 -5.79792,-1.12323 -6.65988,-0.77743 -1.88901,0.75784 -8.90054,10.43301 -8.90054,12.2818 0,0.78105 8.22089,1.505 20.33334,1.79057 18.54582,0.43727 20.77573,0.75415 25.36565,3.60454 11.86336,7.36725 12.10149,23.30181 0.45363,30.35361 -3.59536,2.17668 -7.46276,2.56816 -28.81928,2.91724 C 109.69,240.07939 105.55122,239.81879 103,237.99424 Z m 36.73288,-57.20853 c 12.39776,-6.4769 20.73039,-26.71372 15.82935,-38.44355 -3.73043,-8.92815 -15.81031,-13.07565 -24.62844,-8.45592 -9.46088,4.95645 -17.52013,18.21943 -17.57117,28.91659 -0.0665,13.94102 14.75714,24.04985 26.37026,17.98288 z m 61.12055,7.78537 c -8.2736,-2.64375 -18.28676,-12.4144 -20.557,-20.05911 -3.8973,-13.12364 -0.95798,-26.31196 7.82076,-35.09069 12.57758,-12.57759 35.62224,-13.4145 49.20632,-1.78703 18.41068,15.75886 14.78805,44.0844 -7.06523,55.24339 -7.27401,3.71435 -20.66671,4.48564 -29.40485,1.69344 z m 23.1153,-8.281 c 12.7251,-9.25165 12.58219,-39.11616 -0.22454,-46.92421 -5.6352,-3.4357 -13.5559,-3.44509 -19.09355,-0.0227 -11.91139,7.36164 -14.1118,34.32735 -3.61981,44.36037 7.01745,6.71051 15.88953,7.71092 22.9379,2.58647 z m 57.35598,9.1308 c -9.18176,-2.79296 -17.43652,-9.78528 -22.14026,-18.75421 -3.56304,-6.7939 -3.35646,-21.60858 0.39971,-28.66667 6.27388,-11.78904 18.14163,-18.53382 32.41584,-18.42285 14.58479,0.11337 25.60107,6.58715 31.40868,18.45749 9.18116,18.7656 -0.23415,40.81428 -19.92577,46.66207 -7.04138,2.09106 -16.63398,2.40456 -22.1582,0.72417 z m 19.97736,-9.19211 c 6.6622,-4.9651 8.69838,-10.48421 8.69286,-23.5621 -0.005,-13.74495 -2.0963,-19.14151 -9.05966,-23.38732 -14.01434,-8.54504 -27.94508,3.51789 -27.97943,24.22797 -0.034,20.52515 15.05944,32.62361 28.34623,22.72145 z m 51.27976,9.09024 c -6.09284,-1.88904 -13.50283,-10.05614 -16.03163,-17.66966 -2.84961,-8.57939 -2.0204,-22.23934 1.79985,-29.64935 8.1476,-15.80367 27.29834,-22.96983 41.54279,-15.54521 l 5.44049,2.83574 v -10.67385 c 0,-10.0275 -0.1974,-10.76379 -3.25998,-12.1592 -8.05747,-3.67123 -4.3108,-9.124147 6.26914,-9.124147 12.41414,0 11.65751,-2.808349 11.65751,43.269037 v 40.50855 l 3.66667,2.68841 c 5.34422,3.91843 2.6168,5.7605 -7.8021,5.26943 -7.56141,-0.35639 -8.57765,-0.72771 -8.93952,-3.26635 l -0.40828,-2.86425 -6.05644,3.38501 c -6.72117,3.75654 -20.61084,5.24912 -27.8785,2.99584 z M 380.8,178.13333 385.33333,173.6 v -16.62019 c 0,-18.84993 -1.31925,-22.1149 -10.10776,-25.01537 -13.90148,-4.58791 -24.69122,5.75696 -24.92362,23.89599 -0.13686,10.68222 1.89478,17.25018 6.72888,21.75329 4.51792,4.2086 6.16669,4.81576 13.43584,4.94768 4.89053,0.0888 6.51085,-0.60559 10.33333,-4.42807 z m 105.37,10.65676 c -7.93092,-2.95142 -14.45755,-8.86148 -18.6156,-16.85694 -3.36615,-6.47272 -3.70324,-8.23868 -3.08596,-16.16647 0.74867,-9.61529 3.15975,-15.60024 8.68377,-21.55545 14.39071,-15.514 49.97159,-13.679 54.91848,2.83229 3.97316,13.26121 -9.07822,23.04628 -33.62268,25.20809 -10.81256,0.95234 -12.3928,1.79734 -11.32412,6.0553 2.01411,8.02484 10.79087,14.37365 19.83328,14.34673 4.9725,-0.0148 16.79324,-5.12161 19.53942,-8.44145 2.48014,-2.99823 6.83674,-2.86758 6.83674,0.20502 0,3.1552 -5.81188,8.52256 -13.33333,12.31355 -7.57509,3.81803 -22.3612,4.83879 -29.83,2.05933 z m 5.20949,-32.91146 c 10.32243,-1.90822 17.42002,-5.64543 19.92636,-10.49216 2.70832,-5.23731 2.55482,-8.35644 -0.60918,-12.37882 -9.20808,-11.70618 -29.36334,1.75855 -29.36334,19.61619 0,5.34439 -0.45685,5.19637 10.04616,3.25479 z m 59.04555,33.55989 C 537.514,185.25332 532.03641,171.71337 539,161.19717 c 4.07876,-6.15962 17.83213,-12.92169 28.33333,-13.93053 13.2818,-1.27597 14.0034,-1.56655 13.97035,-5.62537 -0.0163,-2.0027 -1.06631,-4.92104 -2.33333,-6.48522 -5.40796,-6.67624 -13.43346,-7.60159 -20.37798,-2.34961 -10.1078,7.64431 -17.25904,8.15951 -17.25904,1.24343 0,-4.67698 5.47714,-8.23564 15.31122,-9.94817 14.52142,-2.5288 28.05976,0.74209 35.35545,8.54195 3.24417,3.46835 3.34463,4.16907 3.75532,26.19566 0.41955,22.50118 0.44073,22.64052 3.66667,24.11036 1.78457,0.8131 3.24468,2.60948 3.24468,3.99193 0,2.25323 -0.9322,2.47273 -9,2.11932 -7.63486,-0.33445 -9.1854,-0.81623 -10.22227,-3.17616 l -1.22227,-2.78192 -5.86034,3.27541 c -6.38204,3.56699 -19.57239,5.12332 -25.93675,3.06027 z m 24.56116,-8.32916 c 4.24564,-2.17525 6.34713,-8.48031 6.34713,-19.04315 0,-11.51794 0.012,-11.50984 -11.76825,-8.01152 -9.49144,2.81866 -16.23175,9.61212 -16.23175,16.35975 0,2.74572 0.92688,6.31552 2.05975,7.93291 3.50476,5.00376 12.6904,6.29864 19.59312,2.76201 z m 49.57256,8.20368 c -6.29501,-1.94993 -13.34535,-9.64551 -15.90955,-17.36559 -2.78225,-8.37656 -2.23522,-22.45149 1.14356,-29.42422 7.70424,-15.89904 27.74796,-23.54918 42.10007,-16.06844 l 5.44049,2.83574 v -9.88336 c 0,-9.46746 -1.73008,-14.07384 -5.28592,-14.07384 -0.60249,0 -1.49229,-1.03417 -1.97733,-2.29816 -1.31305,-3.421762 2.79472,-5.701837 10.27241,-5.701837 12.41414,0 11.65751,-2.808349 11.65751,43.269037 v 40.50855 l 3.66667,2.68841 c 5.34422,3.91843 2.6168,5.7605 -7.8021,5.26943 -7.56141,-0.35639 -8.57765,-0.72771 -8.93952,-3.26635 l -0.40828,-2.86425 -6.05644,3.38501 c -6.72853,3.76066 -20.61076,5.24824 -27.90157,2.98987 z m 29.02872,-11.82944 c 3.67705,-4.11533 3.74585,-4.49479 3.74585,-20.65816 0,-18.67968 -1.33617,-21.96612 -10.10776,-24.861 -14.40428,-4.75384 -25.0855,6.04805 -25.0855,25.36889 0,17.53774 7.20153,26.02483 21.11408,24.88318 5.3361,-0.43788 7.29905,-1.33695 10.33333,-4.73291 z M 698,189.13932 c -6.29888,-2.32996 -12.11865,-7.264 -14.04044,-11.9036 -1.57207,-3.79532 -1.50057,-4.45297 0.65548,-6.02951 3.11859,-2.28037 6.65491,-0.48554 9.36355,4.75238 2.87488,5.55941 7.10713,8.04141 13.71202,8.04141 10.418,0 16.24527,-10.04381 9.09188,-15.67068 -1.76962,-1.39199 -8.21962,-3.86653 -14.33333,-5.49899 -15.42845,-4.11964 -19.78249,-8.20142 -19.78249,-18.5455 0,-20.4388 35.66513,-28.69163 49.26658,-11.40017 3.36363,4.27614 3.11987,8.88718 -0.50637,9.57899 -1.76136,0.33604 -4.34584,-1.55252 -8.19232,-5.98637 C 717.89113,130.31789 717.28307,130 710.84472,130 c -7.24823,0 -11.04375,2.46674 -12.78819,8.31113 -1.30892,4.38531 4.14435,9.11464 13.47218,11.68372 20.35208,5.6054 23.87588,8.4893 23.71169,19.40576 -0.11573,7.69748 -4.04788,13.59671 -11.6468,17.47339 -6.41784,3.27413 -19.69043,4.44891 -25.5936,2.26532 z M 414.66667,186.8048 c 0,-1.4438 1.11204,-2.97804 2.47118,-3.40943 2.04215,-0.64814 2.6195,-2.68932 3.32535,-11.75652 0.46979,-6.0347 0.85775,-16.55277 0.86215,-23.37349 l 0.008,-12.40132 -5,-4.64905 c -4.82804,-4.48916 -4.91099,-4.71611 -2.41183,-6.59869 3.11964,-2.34999 14.24213,-2.58598 16.47848,-0.34963 0.88591,0.8859 1.6,5.14075 1.6,9.53338 v 7.93339 l 3.80153,-5.24787 C 442.01069,127.91408 447.50892,124 453.3404,124 c 5.86231,0 9.32627,2.72375 9.32627,7.33333 0,3.46366 -3.17056,7.33334 -6.00844,7.33334 -0.99988,0 -3.33747,-0.57772 -5.19464,-1.28382 -2.77584,-1.05537 -4.0777,-0.69396 -7.31626,2.03112 -7.18629,6.04687 -9.48066,13.01492 -9.48066,28.79298 0,13.78721 0.0599,14.05897 3.43806,15.59817 6.64263,3.02657 2.99011,4.84248 -10.54614,5.24316 -12.0642,0.35712 -12.89192,0.21308 -12.89192,-2.24348 z"
       id="path651" />
  </g>
</svg>
