<?xml version="1.0" encoding="UTF-8" standalone="no"?>
<!-- Created with Inkscape (http://www.inkscape.org/) -->

<svg
   version="1.1"
   id="svg631"
   width="11464.498"
   height="1442.4938"
   viewBox="0 0 11464.498 1442.4937"
   sodipodi:docname="goodreads_both.svg"
   inkscape:version="1.2.2 (b0a8486541, 2022-12-01)"
   xmlns:inkscape="http://www.inkscape.org/namespaces/inkscape"
   xmlns:sodipodi="http://sodipodi.sourceforge.net/DTD/sodipodi-0.dtd"
   xmlns="http://www.w3.org/2000/svg"
   xmlns:svg="http://www.w3.org/2000/svg">
  <defs
     id="defs635">
    <marker
       style="overflow:visible"
       id="Arrow5"
       refX="0"
       refY="0"
       orient="auto-start-reverse"
       inkscape:stockid="Arrow5"
       markerWidth="5.8874264"
       markerHeight="6.6094756"
       viewBox="0 0 5.8874262 6.6094758"
       inkscape:isstock="true"
       inkscape:collect="always"
       preserveAspectRatio="xMidYMid">
      <path
         transform="scale(0.5)"
         style="fill:context-stroke;fill-rule:evenodd;stroke:context-stroke;stroke-width:1pt"
         d="m 6,0 c -3,1 -7,3 -9,5 0,0 0,-4 2,-5 -2,-1 -2,-5 -2,-5 2,2 6,4 9,5 z"
         id="path8893" />
    </marker>
  </defs>
  <sodipodi:namedview
     id="namedview633"
     pagecolor="#ffffff"
     bordercolor="#666666"
     borderopacity="1.0"
     inkscape:showpageshadow="2"
     inkscape:pageopacity="0.0"
     inkscape:pagecheckerboard="0"
     inkscape:deskcolor="#d1d1d1"
     showgrid="false"
     inkscape:zoom="0.03671875"
     inkscape:cx="-177.02128"
     inkscape:cy="2001.7021"
     inkscape:window-width="2494"
     inkscape:window-height="1371"
     inkscape:window-x="66"
     inkscape:window-y="32"
     inkscape:window-maximized="1"
     inkscape:current-layer="g637" />
  <g
     inkscape:groupmode="layer"
     inkscape:label="Image"
     id="g637"
     transform="translate(17.691669,-168.17764)">
    <path
       style="fill:#372212;fill-opacity:1;stroke-width:1.33333"
       d="m 229.36785,1307.8944 c -126.06157,-7.8247 -202.166073,-70.8877 -213.320379,-176.7651 -2.137566,-20.2898 -3.340883,-18.3404 11.320381,-18.3404 h 12.666667 v 6.5342 c 0,3.5938 1.200654,13.5573 2.66812,22.141 13.252613,77.5195 66.534211,124.4855 157.331881,138.6831 16.62904,2.6003 66.58978,3.7136 85.33333,1.9017 120.05189,-11.6053 184.76156,-73.8626 195.91603,-188.4916 0.87129,-8.9538 1.38997,-54.4128 1.34633,-118.00002 l -0.0709,-103.435 -3.17258,10.7228 c -9.52837,32.2045 -25.66948,59.8462 -49.25662,84.3525 -33.67795,34.99012 -73.84902,57.90752 -124.46246,71.00522 -40.43528,10.4637 -91.83686,10.7011 -133.3091,0.6153 C 95.632972,1020.1591 37.897917,967.48268 6.2305824,887.24608 -10.282957,845.40518 -17.667469,803.07668 -17.69161,750.12228 c -0.02542,-55.7576 8.2126524,-100.99 26.5906414,-146 24.9743456,-61.1653 69.1053606,-109.1955 123.8021786,-134.7408 48.86251,-22.8204 115.08119,-29.8393 168.80035,-17.8922 61.06315,13.5805 112.67544,48.6433 147.14988,99.9663 10.40135,15.4848 22.22045,39.8294 27.33697,56.3079 2.33824,7.5307 4.76456,14.8921 5.39184,16.3588 0.6492,1.5179 1.17935,-33.3735 1.23072,-81 l 0.0902,-83.6667 h 12.66667 12.66667 l -0.0133,303.6667 c -0.0133,304.03022 -0.3225,327.14562 -4.75004,354.99182 -11.21189,70.515 -45.43444,124.1742 -98.76857,154.864 -39.10153,22.5002 -85.67551,33.8346 -143.47309,34.9162 -13.38064,0.2504 -27.62844,0.2505 -31.66178,10e-5 z m 40.03497,-287.1688 c 39.3796,-4.8677 72.35587,-16.5785 102.39848,-36.36442 60.23424,-39.67 98.48846,-108.7424 108.31323,-195.5723 2.31397,-20.4505 1.97695,-65.2437 -0.64708,-86 -13.89283,-109.8936 -73.1408,-191.9867 -159.29277,-220.7137 -47.46972,-15.8285 -104.2294,-15.5083 -153.16515,0.8643 -48.54009,16.2402 -87.925428,48.0386 -116.567359,94.1125 -47.6550796,76.6588 -58.3930096,195.9361 -26.143563,290.4036 12.901855,37.7931 31.004209,67.4795 56.967294,93.4219 33.755698,33.7288 72.098398,52.63822 120.101948,59.23052 15.6694,2.1519 52.88995,2.4897 68.03497,0.6176 z m 2695.29838,77.2019 c -114.0328,-6.6587 -197.383,-72.1764 -234.6809,-184.47192 -23.9771,-72.1893 -28.0604,-165.8716 -10.6371,-244.042 8.7876,-39.4259 27.1611,-84.0478 46.9234,-113.958 50.3036,-76.1347 124.7294,-114.7488 221.2242,-114.777 25.7259,-0.01 39.8352,1.2795 61.0099,5.5652 112.716,22.813 188.3323,116.5908 208.0203,257.9829 2.607,18.7224 5.1149,59.3068 4.5664,73.8956 l -0.4262,11.3333 -238.4025,0.3369 -238.4027,0.3371 0.8127,11.6629 c 6.7087,96.2748 43.2589,168.184 104.7485,206.08312 31.8922,19.6567 74.1783,28.7215 117.3702,25.1604 50.4812,-4.1621 87.8733,-20.3157 118.2806,-51.09812 22.4306,-22.7072 39.1691,-51.4204 50.5754,-86.7567 l 6.3512,-19.676 38.2366,-0.025 38.2367,-0.025 -4.5996,17.4364 c -20.7137,78.5226 -59.6792,136.04512 -114.5404,169.08992 -45.5863,27.4581 -106.2428,39.9411 -174.6667,35.9456 z m 219.3334,-376.14672 c 0,-9.0468 -4.5512,-39.8103 -7.9843,-53.9687 -5.0108,-20.6656 -11.5261,-38.171 -21.5668,-57.9463 -10.5592,-20.7963 -21.6708,-36.2363 -37.7823,-52.4997 -26.2457,-26.4932 -55.1124,-42.3056 -91.391,-50.0618 -19.8947,-4.2534 -55.8612,-4.2822 -75.5872,-0.061 -58.8931,12.6038 -104.3531,50.2293 -134.8922,111.6449 -14.9133,29.9915 -23.9256,60.911 -29.9929,102.9003 l -0.4336,3 h 199.8152 199.8151 v -3.0081 z m 296,375.42492 c -9.5974,-0.7208 -33.2978,-4.43 -42,-6.573 -67.046,-16.5115 -111.7812,-54.6684 -130.5423,-111.34622 -10.6737,-32.2457 -12.7471,-73.0025 -5.4988,-108.0936 12.1347,-58.7477 51.2025,-98.3957 119.2948,-121.0664 33.5212,-11.1605 74.8091,-19.305 134.7463,-26.5801 17.9666,-2.1808 47.9666,-5.8143 66.6666,-8.0744 18.7,-2.2601 40.2308,-5.5964 47.8462,-7.4137 30.4009,-7.2552 44.4232,-18.6592 52.384,-42.6027 2.8344,-8.5248 3.103,-11.6434 3.102,-36 0,-23.7656 -0.3443,-27.9721 -3.1548,-38.6667 -13.5178,-51.4369 -50.9146,-78.6681 -118.0451,-85.9566 -19.6772,-2.1364 -59.4525,-1.8115 -76.3692,0.6238 -36.7975,5.2973 -67.0703,18.8217 -88.5331,39.5522 -22.7258,21.9506 -36.2896,53.2656 -39.3208,90.7806 -0.5184,6.4167 -1.3101,11.726 -1.7592,11.7985 -3.9789,0.6423 -71.4066,0.3277 -72.4838,-0.3381 -3.57,-2.2065 2.9116,-44.5622 10.2453,-66.9498 9.9677,-30.429 24.1475,-53.7232 46.0117,-75.5874 34.5488,-34.5489 81.249,-54.7252 145.4102,-62.8229 18.4933,-2.334 80.3336,-2.3031 97.3333,0.049 57.6307,7.9728 95.5612,23.6172 125.3164,51.6868 21.4545,20.2391 37.3883,47.9689 45.2375,78.728 7.6197,29.8595 7.2598,19.8476 8.0658,224.4362 0.7146,181.3845 0.8414,188.9221 3.2847,195.2864 7.2117,18.78452 28.6256,27.97012 53.3063,22.86602 5.7244,-1.1839 10.6437,-2.1524 10.932,-2.1524 0.2881,0 0.524,14.3151 0.524,31.8113 v 31.8115 l -10.3334,1.8552 c -6.5888,1.1831 -19.7552,1.838 -36.3333,1.8075 -22.9335,-0.043 -27.2525,-0.4048 -36.6199,-3.0746 -27.9804,-7.9745 -43.5668,-24.175 -50.5262,-52.517 -2.6464,-10.7772 -4.7991,-30.09952 -4.8308,-43.36062 -0.013,-5.3166 -0.4731,-9.6614 -1.0231,-9.655 -0.55,0 -3.3803,3.7057 -6.2895,8.2205 -18.0204,27.96562 -45.3593,58.37932 -67.4166,74.99882 -38.843,29.2668 -91.104,43.9271 -153.9606,43.1891 -10.2666,-0.12 -21.3666,-0.422 -24.6666,-0.6699 z m 66.8736,-65.0268 c 80.2176,-10.6789 143.8296,-57.15882 168.7166,-123.27772 1.7782,-4.7241 4.8074,-14.632 6.7315,-22.0175 l 3.4985,-13.4281 0.513,-66.4819 0.5128,-66.4818 -4.0427,4.6044 c -4.6325,5.2761 -15.848,11.5905 -27.47,15.4656 -12.8483,4.284 -38.3213,8.9646 -88.1048,16.1892 -25.6091,3.7162 -55.5619,8.2678 -66.5619,10.1144 -89.8446,15.0825 -136.7724,38.6276 -155.8628,78.2009 -7.1882,14.9009 -10.1372,28.308 -10.1372,46.0881 0,32.0118 10.2627,58.076 31.7031,80.5176 20.0593,20.99582 48.8924,35.84762 79.6303,41.01722 10.8244,1.8204 45.5517,1.5294 60.8736,-0.5104 z m 600.1276,64.5164 c -41.9728,-4.0584 -85.3899,-18.7762 -117.3736,-39.7881 -69.1735,-45.4439 -112.376,-123.33292 -126.5296,-228.11832 -3.4803,-25.7652 -3.4784,-94.2586 0,-120 9.227,-68.2209 31.4553,-126.7334 64.7704,-170.4979 42.9742,-56.4535 105.0894,-90.1909 179.36,-97.4181 76.7421,-7.4677 148.9741,14.9046 197.024,61.024 17.9525,17.2313 28.6248,31.8037 40.124,54.7872 l 9.6204,19.2285 0.3381,-178.8952 0.3381,-178.89513 h 37.9952 37.9952 v 431.35543 431.35552 l -34.8632,-0.3555 -34.8632,-0.3554 0.057,-59 c 0.032,-32.45002 -0.3303,-58.99722 -0.8036,-58.99392 -0.4734,0 -3.6898,5.5668 -7.1478,12.3633 -20.35,39.99752 -56.0676,73.39952 -103.0461,96.36582 -45.696,22.3393 -92.2285,30.747 -142.9988,25.8378 z m 73.53,-66.5272 c 96.0684,-16.5614 156.3793,-91.98022 171.7012,-214.71252 2.2742,-18.2176 2.2858,-74.9757 0.019,-93.3333 -16.2054,-131.238 -82.7738,-206.7682 -191.6601,-217.4624 -47.2975,-4.6453 -90.902,5.5767 -127.2473,29.8301 -22.4348,14.9709 -49.8038,47.3764 -64.2067,76.0223 -35.122,69.8541 -44.0648,167.9506 -23.0417,252.7502 6.0574,24.4332 10.8826,38.1175 20.7237,58.7719 31.7248,66.5835 83.3585,104.26112 152.5141,111.29092 11.9835,1.2182 45.9966,-0.5365 61.1979,-3.1572 z m 555.4688,67.1619 c -70.73,-6.0444 -121.397,-25.8128 -159.4852,-62.2255 -38.058,-36.38372 -59.6014,-85.09662 -66.33,-149.98222 l -0.7259,-7 h 37.8555 37.8556 l 0.7956,6.3333 c 5.6121,44.6713 18.6696,74.1537 44.1085,99.5925 41.9933,41.99352 115.6812,59.37462 189.0987,44.60352 52.6056,-10.5839 90.8834,-34.96122 107.9437,-68.74452 12.7004,-25.1495 13.0035,-58.864 0.7569,-84.1918 -8.8706,-18.3461 -26.5954,-34.8906 -49.8981,-46.5756 -24.5917,-12.3313 -50.8491,-20.1928 -118.882,-35.5938 -27.7347,-6.2786 -58.2267,-13.5916 -67.76,-16.2512 -114.2287,-31.8683 -159.3528,-77.6587 -159.328,-161.6804 0.013,-38.2375 8.9301,-67.2465 28.9604,-94.1957 39.6417,-53.3348 121.6873,-84.6287 213.7009,-81.5097 68.6931,2.3284 121.7523,22.6328 160.7399,61.5111 32.4985,32.4073 51.52,76.1802 54.7905,126.0856 l 0.8704,13.2833 h -38.0694 -38.0695 l -0.8841,-8.3333 c -4.3652,-41.1476 -17.4571,-68.1347 -44.6986,-92.1399 -27.9541,-24.6334 -77.4876,-38.8552 -126.7226,-36.3843 -73.2263,3.6751 -121.6631,34.0601 -132.503,83.1207 -2.6717,12.0926 -2.7381,33.4712 -0.1348,43.4659 10.1303,38.8925 51.0386,66.4092 126.0146,84.7629 14.7965,3.6222 84.5158,19.183 120.6666,26.9319 51.9495,11.1353 99.3426,38.5159 124.5339,71.9472 21.9444,29.1224 31.2663,57.9451 31.2519,96.6289 -0.015,38.323 -8.5888,67.0759 -28.7151,96.28982 -31.0021,45.0005 -93.2481,77.296 -169.0707,87.7198 -14.5334,1.998 -65.6574,3.6432 -78.6666,2.5315 z m -3942.66675,-2.6552 c -70.45419,-5.914 -123.75273,-30.2673 -169.40096,-77.4032 -70.25301,-72.54252 -102.62843,-189.66112 -85.26844,-308.45962 9.20135,-62.967 34.73591,-123.9986 70.29799,-168.0231 9.53445,-11.8032 32.39114,-34.2161 43.70474,-42.856 36.09086,-27.5617 80.04964,-45.1196 126.41766,-50.4934 16.89573,-1.9581 51.68308,-1.9534 68.44837,0.01 57.0178,6.6751 105.63274,29.692 146.27179,69.2529 51.2706,49.9104 81.8733,115.6638 93.7446,201.4206 3.2143,23.2194 3.2024,80.368 -0.022,104.6441 -6.9112,52.0368 -21.4829,97.6865 -43.5925,136.5649 -42.437,74.62282 -108.05075,120.60182 -189.32477,132.66982 -13.90391,2.0645 -49.84963,3.633 -61.27673,2.6737 z m 62,-27.7296 c 98.8229,-17.4277 170.85895,-90.19312 198.47005,-200.47962 8.644,-34.5267 11.5308,-58.7705 11.5284,-96.818 -0.01,-92.3059 -29.7704,-173.6786 -83.8862,-229.3346 -26.40135,-27.1527 -55.42935,-45.7482 -89.44558,-57.2993 -48.38702,-16.431 -107.36607,-16.7455 -156.21915,-0.8331 -91.75952,29.8881 -154.68885,114.9543 -172.81724,233.6101 -3.33039,21.7982 -3.26187,88.6649 0.11307,110.3316 16.31117,104.716 65.65348,181.65682 140.25666,218.70612 26.63744,13.2287 50.15872,20.2024 80.66667,23.9168 13.53747,1.6483 58.16615,0.522 71.33333,-1.8 z m 530.00005,27.5837 c -23.5507,-1.3916 -54.0435,-7.8164 -76,-16.0128 -33.1056,-12.3584 -59.4417,-29.2996 -86.4898,-55.6361 -48.2705,-47.00052 -78.2733,-110.38652 -91.2312,-192.74092 -2.4221,-15.3939 -2.8429,-23.9372 -2.8902,-58.6835 -0.037,-27.1255 0.5403,-44.8844 1.7337,-53.3333 19.8756,-140.7129 95.0738,-236.309 208.2108,-264.6892 40.446,-10.1458 94.383,-10.1099 134.8567,0.09 113.1769,28.5212 190.2108,128.3558 207.2921,268.6467 2.9407,24.1528 2.91,71.5651 -0.063,96.6194 -11.2223,94.5872 -50.6074,172.4069 -112.1908,221.67402 -48.6536,38.9232 -113.864,58.165 -183.2288,54.066 z m 49.0525,-25.8292 c 29.2016,-3.2082 53.8456,-10.4045 79.6142,-23.2484 80.9309,-40.3382 133.0526,-128.09532 143.3329,-241.32902 6.016,-66.2652 -6.2904,-136.2806 -33.9819,-193.3334 -35.0908,-72.298 -94.0908,-120.3738 -166.0177,-135.2785 -38.7255,-8.0248 -84.3773,-6.2929 -122,4.6282 -96.7053,28.0716 -164.0168,118.1175 -179.892,240.6503 -7.5337,58.1492 -1.2415,122.3314 17.2613,176.0695 6.5964,19.1581 22.4643,51.1097 33.7357,67.9305 35.2917,52.66702 85.8237,87.20422 146.2283,99.94312 24.612,5.1904 56.4987,6.7387 81.7192,3.9677 z m 524.2808,25.3662 c -80.8733,-7.7572 -145.5568,-49.2099 -188.5124,-120.80942 -56.3666,-93.953 -65.8806,-242.6193 -22.7046,-354.7808 30.4558,-79.1176 84.7802,-135.5692 153.4684,-159.478 26.6802,-9.2868 51.32,-13.1241 83.7486,-13.0426 76.4664,0.192 137.0167,24.4839 184.1499,73.878 26.2891,27.5502 49.2208,68.0544 58.6665,103.6225 1.2659,4.7667 2.8,9.2367 3.4092,9.9333 0.6094,0.6967 1.1078,-92.4758 1.1078,-207.05 v -208.3167 l 12.3333,0.38336 12.3333,0.38337 0.3354,430.99997 0.3354,431.00002 h -12.6592 -12.659 l -0.343,-87.66662 -0.3429,-87.6667 -5.1096,14.6667 c -14.7017,42.2002 -36.6873,76.7886 -67.8549,106.75132 -36.8066,35.3837 -82.2038,57.3733 -134.4679,65.1337 -17.8261,2.647 -48.8823,3.627 -65.2343,2.0586 z m 66.0512,-27.1106 c 45.8204,-7.9574 85.4104,-27.7353 117.7678,-58.833 24.6022,-23.64442 40.5072,-45.81472 56.1462,-78.26342 30.8914,-64.0942 41.1628,-143.2384 29.2966,-225.7366 -16.3823,-113.8962 -73.9706,-192.1143 -162.8902,-221.2421 -36.7944,-12.053 -82.573,-15.6508 -120.3716,-9.4603 -71.7194,11.7461 -125.4688,53.3 -161.328,124.7238 -23.2989,46.4064 -35.8045,100.124 -37.5538,161.3119 -2.5287,88.4503 18.7202,166.5935 60.9266,224.0588 11.2447,15.3099 35.3423,38.82712 50.073,48.86682 29.6416,20.2024 64.4657,32.732 102.5489,36.8968 10.1692,1.1121 54.7193,-0.4704 65.3845,-2.3227 z m 347.2822,-297.47932 v -311.3537 h 35.322 35.3218 l 0.3448,73 0.3447,73 4.6264,-10 c 27.1433,-58.67 61.9661,-96.8187 110.0403,-120.5497 34.0822,-16.8242 68.8128,-24.7837 108.1413,-24.7837 h 12.5253 v 38.3334 38.3333 l -8.2273,-0.4631 c -11.3727,-0.6402 -39.2881,2.0021 -54.138,5.1243 -83.3299,17.52 -142.9648,78.8475 -162.6305,167.2461 l -3.5802,16.0927 -0.7144,183.3333 -0.7144,183.33342 -38.3333,0.3537 -38.3333,0.3539 V 769.47598 Z"
       id="path690" />
    <g
       id="g1274"
       transform="translate(5483.776,302.07434)">
      <path
         style="fill:none;stroke:#000000;stroke-width:60;stroke-linecap:butt;stroke-linejoin:miter;stroke-dasharray:none;stroke-opacity:1;marker-end:url(#Arrow5)"
         d="m -319.44979,478.63334 409.374262,0.11033 7.373814,-0.0497 v 0 0"
         id="path319" />
    </g>
    <path
       style="fill:#000000;stroke-width:12.4996"
       d="m 5955.0999,1591.7344 c -28.1724,-23.4692 -31.9342,-42.4718 -14.6761,-74.1411 9.1127,-16.7216 46.0647,-20.2362 212.7558,-20.2362 183.5306,0 203.9819,-2.3668 226.7228,-26.2373 31.5059,-33.0709 26.9658,-71.3751 -12.514,-105.5787 -27.612,-23.9224 -48.3317,-26.4293 -206.0709,-24.9331 -173.7277,1.648 -175.6498,1.3384 -205.118,-32.9871 -37.8841,-44.1303 -31.3679,-93.0852 25.1564,-188.9936 44.0321,-74.712 50.2235,-114.3137 22.1182,-141.48445 -10.0203,-9.68706 -29.3953,-42.30236 -43.0559,-72.47849 -31.9576,-70.59449 -33.5428,-208.34739 -3.192,-277.46393 69.2467,-157.69547 225.141,-238.09117 354.0008,-182.56059 28.664,12.35238 60.7058,25.63845 71.2048,29.52452 14.3222,5.30177 30.0066,-17.13896 62.826,-89.89115 56.2004,-124.58318 108.5059,-149.25808 152.102,-71.75333 25.47,45.28135 8.5887,81.9875 -71.0109,154.40528 -35.5103,32.30638 -64.5643,63.5021 -64.5643,69.32386 0,5.82175 12.7251,33.22056 28.2783,60.88628 116.8802,207.90634 5.6598,486.1887 -204.4066,511.444 -33.7739,4.0605 -81.3135,0.9804 -105.6421,-6.8448 -24.3296,-7.8252 -50.3616,-11.3649 -57.8481,-7.8661 -16.4079,7.6679 -77.3109,105.5622 -77.3109,124.2684 0,7.9028 71.4069,15.2278 176.6165,18.1172 161.0894,4.4244 180.4585,7.6306 220.3264,36.4711 103.0459,74.5427 105.114,235.77 3.9409,307.1208 -31.2298,22.024 -64.8221,25.985 -250.3254,29.5171 -182.2042,3.4691 -218.154,0.8327 -240.3137,-17.6286 z m 319.063,-578.8417 c 107.6869,-65.5339 180.065,-270.29208 137.4938,-388.97569 -32.4024,-90.33594 -137.3288,-132.30076 -213.923,-85.55785 -82.1777,50.14986 -152.1802,184.34603 -152.6241,292.58097 -0.5732,141.05666 128.1816,243.33887 229.0533,181.95257 z m 530.8947,78.7732 c -71.8647,-26.7497 -158.8389,-125.61016 -178.5588,-202.96011 -33.8521,-132.78632 -8.3204,-266.22707 67.9317,-355.05115 109.2494,-127.26133 309.4155,-135.72928 427.4075,-18.08136 159.9159,159.44975 128.4499,446.05043 -61.3685,558.95822 -63.1822,37.5821 -179.5117,45.3861 -255.4119,17.1344 z m 200.7802,-83.788 c 110.5307,-93.60913 109.2893,-395.78126 -1.95,-474.78391 -48.9476,-34.76276 -117.7469,-34.85776 -165.8477,-0.22968 -103.4628,74.48583 -122.5755,347.32761 -31.4416,448.84271 60.9542,67.89758 138.0176,78.01988 199.2393,26.17018 z m 498.1961,92.3864 c -79.7535,-28.2595 -151.4541,-99.0085 -192.3114,-189.75703 -30.9483,-68.74137 -29.1538,-218.63781 3.4727,-290.05228 54.4943,-119.2827 157.5784,-187.52706 281.5646,-186.40426 126.6841,1.14708 222.3719,66.64946 272.817,186.75476 79.7473,189.87224 -2.0342,412.96301 -173.0761,472.13151 -61.1618,21.1575 -144.4835,24.3296 -192.4668,7.3273 z m 173.5243,-93.0067 c 57.868,-50.23742 75.5537,-106.08033 75.5059,-238.40375 -0.087,-139.0728 -18.2085,-193.67574 -78.6919,-236.63528 -121.7296,-86.45958 -242.7322,35.59438 -243.0309,245.14106 -0.2953,207.67554 130.8073,330.08897 246.2169,229.89797 z m 445.4171,91.9759 c -52.9223,-19.1135 -117.2858,-101.74902 -139.251,-178.78338 -24.7517,-86.80713 -17.5493,-225.01989 15.6331,-299.99513 70.7703,-159.90313 237.1147,-232.41106 360.842,-157.288 l 47.2565,28.6923 V 383.8602 c 0,-101.45927 -1.7147,-108.90912 -28.3166,-123.02803 -69.9868,-37.14587 -37.4437,-92.31908 54.4546,-92.31908 107.8292,0 101.2574,-28.41516 101.2574,437.80053 v 409.86958 l 31.8491,27.2016 c 46.4198,39.6471 22.7296,58.2854 -67.7694,53.3167 -65.6785,-3.606 -74.5061,-7.3631 -77.6495,-33.0493 l -3.5458,-28.9808 -52.6069,34.2499 c -58.3797,38.009 -179.0261,53.1111 -242.1535,30.3122 z m 245.1041,-113.17782 39.3765,-45.86869 V 772.02223 c 0,-190.7255 -11.4587,-223.7608 -87.7959,-253.10804 -120.7488,-46.42094 -214.4695,58.24949 -216.4881,241.78204 -1.1882,108.08378 16.4583,174.53907 58.4476,220.10199 39.2426,42.58308 53.5641,48.72638 116.7046,50.06108 42.479,0.8985 56.553,-6.1274 89.7553,-44.80362 z m 915.2472,107.82622 c -68.888,-29.8628 -125.5791,-89.6614 -161.6957,-170.56026 -29.2389,-65.49163 -32.1661,-83.3598 -26.8051,-163.57399 6.5032,-97.28847 27.4461,-157.84479 75.4278,-218.10022 124.9981,-156.97223 434.0549,-138.40551 477.0239,28.65739 34.5104,134.17828 -78.8536,233.1846 -292.0479,255.05801 -93.9186,9.63588 -107.6442,18.18567 -98.3615,61.26814 17.4945,81.19615 93.7301,145.43403 172.2727,145.16163 43.1913,-0.1498 145.8663,-51.82092 169.7199,-85.4114 21.5422,-30.33639 59.3837,-29.01447 59.3837,2.07441 0,31.92464 -50.4824,86.23209 -115.8134,124.58969 -65.7976,38.6312 -194.2301,48.9594 -259.1044,20.8366 z m 45.2499,-333.00152 c 89.6606,-19.30756 151.3107,-57.12103 173.0806,-106.16073 23.5252,-52.99163 22.1918,-84.55131 -5.2908,-125.25016 -79.9818,-118.44431 -255.0514,17.79319 -255.0514,198.47859 0,54.07509 -3.9677,52.5774 87.2616,32.9323 z m 512.8712,339.56232 c -112.1455,-42.3462 -159.724,-179.34482 -99.238,-285.7488 35.4287,-62.32365 154.8902,-130.74296 246.104,-140.95051 115.3663,-12.91039 121.6343,-15.85051 121.3473,-56.91806 -0.139,-20.26352 -9.262,-49.79158 -20.268,-65.61811 -46.973,-67.55087 -116.6829,-76.91366 -177.0031,-23.77359 -87.7966,77.34589 -149.9131,82.55875 -149.9131,12.58115 0,-47.32216 47.5752,-83.32904 132.9936,-100.6566 126.1346,-25.58665 243.7286,7.50854 307.0986,86.42832 28.18,35.09311 29.052,42.18307 32.619,265.05034 3.645,227.66926 3.828,229.07906 31.849,243.95106 15.501,8.227 28.184,26.403 28.184,40.3907 0,22.7985 -8.097,25.0194 -78.175,21.4435 -66.317,-3.384 -79.784,-8.2587 -88.791,-32.1367 l -10.617,-28.1477 -50.902,33.1409 c -55.435,36.0911 -170.0069,51.8382 -225.2883,30.9641 z m 213.3393,-84.2752 c 36.877,-22.00944 55.131,-85.80467 55.131,-192.68057 0,-116.53967 0.104,-116.45772 -102.219,-81.06137 -82.4434,28.5195 -140.9898,97.25642 -140.9898,165.52962 0,27.78148 8.0512,63.90107 17.8914,80.26599 30.442,50.62853 110.2293,63.73023 170.1864,27.94633 z m 430.589,83.0056 c -54.679,-19.7296 -115.919,-97.5942 -138.191,-175.70677 -24.166,-84.75488 -19.415,-227.16645 9.933,-297.71724 66.919,-160.8681 241.019,-238.27299 365.682,-162.5821 l 47.256,28.6923 V 391.85845 c 0,-95.79273 -15.027,-142.40055 -45.913,-142.40055 -5.233,0 -12.962,-10.46383 -17.175,-23.25301 -11.406,-34.62171 24.275,-57.6918 89.226,-57.6918 107.83,0 101.258,-28.41516 101.258,437.80053 v 409.86958 l 31.849,27.2016 c 46.42,39.6471 22.73,58.2854 -67.769,53.3167 -65.679,-3.606 -74.506,-7.3631 -77.65,-33.0493 l -3.546,-28.9808 -52.607,34.2499 c -58.444,38.0507 -179.025,53.1022 -242.353,30.2518 z m 252.144,-119.69145 c 31.939,-41.63933 32.536,-45.47874 32.536,-209.02135 0,-189.00289 -11.605,-222.25544 -87.795,-251.54611 -125.117,-48.09983 -217.894,61.19477 -217.894,256.68499 0,177.44864 62.553,263.32182 183.397,251.77052 46.35,-4.4305 63.4,-13.5274 89.756,-47.88805 z m 385.769,117.93375 c -54.713,-23.5748 -105.264,-73.4979 -121.956,-120.44182 -13.655,-38.40144 -13.034,-45.05561 5.693,-61.00719 27.088,-23.07301 57.805,-4.91274 81.333,48.08505 24.971,56.25066 61.732,81.36376 119.103,81.36376 90.491,0 141.107,-101.62424 78.972,-158.55748 -15.371,-14.08429 -71.396,-39.12195 -124.499,-55.63933 -134.013,-41.68294 -171.832,-82.98281 -171.832,-187.64526 0,-206.80185 309.788,-290.30481 427.931,-115.34807 29.217,43.26642 27.099,89.92139 -4.398,96.92119 -15.3,3.4001 -37.749,-15.70856 -71.159,-60.5707 -46.414,-62.32133 -51.695,-65.53778 -107.619,-65.53778 -62.958,0 -95.926,24.95873 -111.079,84.09286 -11.369,44.37102 35.999,92.22285 117.02,118.21707 176.779,56.716 207.387,85.89559 205.961,196.34944 -1.005,77.88388 -35.16,137.57286 -101.164,176.79756 -55.746,33.1279 -171.032,45.0144 -222.307,22.9207 z m -2461.0422,-23.6209 c 0,-14.6085 9.6587,-30.1321 21.4639,-34.497 17.7386,-6.5579 22.7531,-27.2108 28.8845,-118.95362 4.0807,-61.05971 7.4501,-167.4826 7.4884,-236.49534 l 0.087,-125.47782 -43.4302,-47.03955 c -41.9361,-45.42178 -42.6561,-47.71808 -20.949,-66.76621 27.0979,-23.77744 123.7074,-26.1652 143.1328,-3.5376 7.695,8.96363 13.8977,52.01463 13.8977,96.45971 v 80.27084 l 33.0201,-53.09847 c 53.9332,-86.7272 101.6907,-126.33027 152.3433,-126.33027 50.9202,0 81.0086,27.55919 81.0086,74.19937 0,35.04567 -27.5399,74.19949 -52.1901,74.19949 -8.6851,0 -28.9887,-5.84543 -45.1205,-12.98983 -24.1114,-10.67834 -35.419,-7.02155 -63.5495,20.55109 -62.4204,61.18283 -82.3488,131.68628 -82.3488,291.33027 0,139.50044 0.5212,142.25004 29.8625,157.82384 57.6987,30.6232 25.9722,48.9967 -91.6038,53.0509 -104.79,3.6133 -111.9794,2.1559 -111.9794,-22.6998 z"
       id="path651" />
  </g>
</svg>
