<?xml version="1.0" encoding="UTF-8" standalone="no"?>
<!-- Created with Inkscape (http://www.inkscape.org/) -->

<svg
   version="1.1"
   id="svg2"
   width="3026.6069"
   height="341.15057"
   viewBox="0 0 3026.607 341.15057"
   sodipodi:docname="marvel_goodreads_both.svg"
   inkscape:version="1.2.2 (b0a8486541, 2022-12-01)"
   xmlns:inkscape="http://www.inkscape.org/namespaces/inkscape"
   xmlns:sodipodi="http://sodipodi.sourceforge.net/DTD/sodipodi-0.dtd"
   xmlns="http://www.w3.org/2000/svg"
   xmlns:svg="http://www.w3.org/2000/svg">
  <defs
     id="defs6">
    <marker
       style="overflow:visible"
       id="Arrow5"
       refX="0"
       refY="0"
       orient="auto-start-reverse"
       inkscape:stockid="Arrow5"
       markerWidth="5.8874264"
       markerHeight="6.6094756"
       viewBox="0 0 5.8874262 6.6094758"
       inkscape:isstock="true"
       inkscape:collect="always"
       preserveAspectRatio="xMidYMid">
      <path
         transform="scale(0.5)"
         style="fill:context-stroke;fill-rule:evenodd;stroke:context-stroke;stroke-width:1pt"
         d="m 6,0 c -3,1 -7,3 -9,5 0,0 0,-4 2,-5 -2,-1 -2,-5 -2,-5 2,2 6,4 9,5 z"
         id="path8893" />
    </marker>
  </defs>
  <sodipodi:namedview
     id="namedview4"
     pagecolor="#ffffff"
     bordercolor="#666666"
     borderopacity="1.0"
     inkscape:showpageshadow="2"
     inkscape:pageopacity="0.0"
     inkscape:pagecheckerboard="0"
     inkscape:deskcolor="#d1d1d1"
     showgrid="false"
     inkscape:zoom="0.3461877"
     inkscape:cx="755.37058"
     inkscape:cy="417.40363"
     inkscape:window-width="2494"
     inkscape:window-height="1371"
     inkscape:window-x="66"
     inkscape:window-y="32"
     inkscape:window-maximized="1"
     inkscape:current-layer="g8" />
  <g
     inkscape:groupmode="layer"
     inkscape:label="Image"
     id="g8"
     transform="translate(1582.607,-320.11716)">
    <path
       id="path170"
       style="fill:#000000"
       d="m 383,566.23513 c -1.925,-0.17144 -6.875,-1.15283 -11,-2.18087 -25.01253,-6.23363 -41.68586,-21.51956 -49.46438,-45.3484 -4.5814,-14.03473 -4.51428,-44.72209 0.13169,-60.20586 7.89496,-26.31179 23.63279,-46.44537 42.83269,-54.79631 17.00686,-7.39708 30.69452,-7.51926 49.5,-0.44184 13.8952,5.22945 27,18.65529 27,27.66146 0,6.29671 -6.92737,13.10743 -13.28393,13.06024 -4.07712,-0.0303 -10.00918,-4.41754 -16.20303,-11.98355 -3.37689,-4.125 -8.35614,-8.9625 -11.06499,-10.75 -15.98499,-10.54808 -37.66044,4.23582 -45.81723,31.25 -3.93917,13.04596 -4.72648,30.22887 -2.16527,47.25658 2.44179,16.23382 7.76847,28.04901 15.63439,34.67887 4.4238,3.72864 14.18042,8.07959 20.11257,8.96917 4.80192,0.72009 19.71361,-0.85023 22.65265,-2.38551 0.89916,-0.4697 4.01853,-2.03156 6.93194,-3.47081 5.05228,-2.49586 6.89268,-3.87142 15.10999,-11.29352 1.9761,-1.78487 4.53567,-3.24737 5.68792,-3.25 3.47443,-0.008 5.90507,3.63545 5.90433,8.85021 -8.4e-4,5.95885 -4.33493,12.45084 -12.66941,18.97736 -6.31245,4.94312 -19.22769,12.08239 -21.9542,12.13582 -0.89335,0.0175 -3.38599,0.6534 -5.5392,1.41309 -4.00317,1.41241 -16.05877,2.41299 -22.33653,1.85387 z m 765.1913,-0.91123 c -4.1672,-2.05365 -9.3127,-8.33879 -12.136,-14.8239 -3.3117,-7.60717 -5.1621,-11.71694 -6.6776,-14.83104 C 1128.62,534.11189 1128,532.3997 1128,531.8641 c 0,-0.53561 -0.8204,-2.86164 -1.8231,-5.16896 -2.1837,-5.02501 -4.4642,-10.92042 -6.0713,-15.69514 -0.6479,-1.925 -5.458,-16.23788 -10.689,-31.8064 -5.231,-15.56851 -9.9092,-29.29351 -10.396,-30.5 -0.4869,-1.20648 -1.653,-4.8936 -2.5915,-8.1936 -3.0761,-10.81707 -6.3538,-16.28512 -11.1548,-18.60924 C 1080.3352,419.49977 1078,416.64566 1078,413 c 0,-2.48328 2.3001,-6.74727 4.442,-8.23469 0.5819,-0.40408 12.2021,-0.74158 25.8227,-0.75 l 24.7647,-0.0153 2.0331,3.25 c 1.402,2.24116 1.8781,4.28653 1.5337,6.58923 -0.6214,4.15511 -2.0356,5.89968 -6.1888,7.63502 -1.7885,0.74728 -4.0126,2.51974 -4.9424,3.93879 -1.6012,2.44375 -1.575,3.06905 0.4962,11.83352 1.2027,5.08939 2.766,10.82844 3.4741,12.75344 0.7081,1.925 2.9822,8.9 5.0535,15.5 2.0713,6.6 4.3255,13.575 5.0093,15.5 0.6837,1.925 3.7703,11.15 6.8591,20.5 8.0752,24.44489 8.5522,25.81588 9.6502,27.73643 0.5459,0.95504 0.9926,2.33153 0.9926,3.05887 0,0.72734 0.6357,2.19186 1.4127,3.25449 1.3102,1.79172 1.716,1.27905 5.5879,-7.05887 6.2517,-13.46303 7.5535,-16.72755 10.1645,-25.49092 0.5736,-1.925 1.3941,-3.95 1.8234,-4.5 0.4293,-0.55 1.0999,-2.49281 1.4903,-4.31736 0.3903,-1.82455 1.3395,-4.52455 2.1093,-6 0.7698,-1.47545 1.4024,-3.45487 1.4057,-4.39871 0,-0.94384 0.6328,-3.19384 1.3985,-5 0.7658,-1.80616 2.3882,-6.65893 3.6052,-10.78393 1.217,-4.125 2.7954,-9.3 3.5075,-11.5 6.2311,-19.251 6.8398,-33.30364 1.5157,-34.99344 -1.0207,-0.32394 -3.0179,-1.5031 -4.4382,-2.62036 -3.3557,-2.63957 -3.6789,-9.7898 -0.5825,-12.8862 1.8733,-1.87329 3.3333,-2 23.0455,-2 21.0112,0 21.0494,0.004 23.5,2.45455 4.2176,4.21767 2.3748,13.59569 -2.9335,14.92799 -6.1489,1.54326 -11.3017,8.9217 -17.1919,24.61746 -1.3416,3.575 -2.8247,7.4 -3.2959,8.5 -2.7097,6.326 -5.1242,13.25747 -5.1242,14.71031 0,0.91941 -0.3774,1.90492 -0.8387,2.19003 -0.4614,0.28511 -2.0845,4.47416 -3.607,9.30902 -1.5225,4.83485 -3.2421,9.68736 -3.8213,10.78336 -0.5792,1.09599 -1.3993,3.34599 -1.8225,5 -0.4232,1.654 -2.6277,8.18228 -4.8989,14.50728 -2.2712,6.325 -4.4997,12.625 -4.9522,14 -0.4525,1.375 -1.2915,3.625 -1.8645,5 -0.573,1.375 -2.7215,6.73151 -4.7744,11.90335 -7.8066,19.66618 -12.3736,24.75343 -22.4205,24.9742 -1.925,0.0423 -4.9889,-0.65684 -6.8087,-1.55365 z m 151.3087,0.68614 c -9.1961,-1.53879 -17.5134,-4.52451 -26.7061,-9.58686 -4.0788,-2.24617 -13.2844,-10.96055 -17.1571,-16.24156 -7.303,-9.95892 -10.3865,-17.69115 -13.6425,-34.21032 -3.9449,-20.01475 -1.94,-37.24697 7.2104,-61.9713 3.1908,-8.6216 13.7606,-24.18924 20.1924,-29.74028 4.5639,-3.9389 12.138,-8.97817 14.6594,-9.7533 1.3439,-0.41316 2.8935,-1.0976 3.4435,-1.52097 2.1512,-1.65596 16.4031,-4.98545 21.3403,-4.98545 7.3988,0 20.5956,3.60573 27.84,7.60669 10.6734,5.89469 19.4778,15.05207 24.4147,25.39331 4.9817,10.43536 6.4179,26.1141 3.0049,32.80415 -1.9131,3.75008 -9.061,12.19585 -10.3217,12.19585 -0.3728,0 -2.6357,1.32128 -5.0285,2.93617 -6.2054,4.18793 -17.5441,8.10606 -29.2497,10.10732 -3.3,0.56418 -7.35,1.44083 -9,1.94811 -1.65,0.50727 -9.75,1.67266 -18,2.58975 -19.8897,2.21098 -19.9347,2.23019 -19.1237,8.14732 1.1563,8.43595 5.6336,20.70402 9.8199,26.90697 6.9907,10.3582 15.2978,14.75549 27.8038,14.71773 14.6536,-0.0442 29.353,-6.79019 43.3723,-19.90475 6.0635,-5.67217 9.1612,-5.75374 12.0717,-0.31788 1.7029,3.18047 1.7939,4.13191 0.7333,7.67185 -3.7751,12.6003 -22.9618,28.18529 -41.3442,33.58315 -6.803,1.99769 -19.4424,2.77732 -26.3331,1.6243 z m -7,-89.95996 c 6.05,-0.538 12.575,-1.50595 14.5,-2.151 1.925,-0.64505 5.4402,-1.83401 7.8115,-2.64214 8.7122,-2.96904 16.0993,-10.49832 18.293,-18.64496 1.3752,-5.10716 0.4176,-14.18166 -2.0939,-19.84201 -2.1177,-4.77302 -7.862,-10.72016 -12.7109,-13.15979 -4.9455,-2.4882 -14.9042,-2.1173 -21.5026,0.80085 -13.6572,6.03987 -23.7497,25.8817 -23.7821,46.75564 -0.016,10.48457 0.2903,11.06025 5.485,10.30041 1.65,-0.24135 7.95,-0.879 14,-1.417 z M 321.90371,363.26755 c -7.51858,-0.17016 -15.69343,8.7201 -24.23828,26.54297 -5.74134,11.97533 -9.32258,17.97333 -12.17969,19.95898 -2.05583,-1.49187 -4.19475,-2.8924 -6.38281,-4.07421 -21.13576,-11.41591 -47.24681,-10.05385 -65.71094,3.42773 -14.36261,10.48686 -22.22458,21.29628 -30.82031,42.37695 -4.56845,11.2039 -7.33712,47.01986 -4.48437,58 0.57159,2.2 1.51795,6.025 2.10351,8.5 0.58556,2.475 1.68276,5.38778 2.4375,6.47266 0.75474,1.08487 1.3711,2.67511 1.3711,3.5332 0,3.01559 9.69143,15.55441 16.33789,21.13867 7.748,6.50978 18.45951,12.10628 28.30078,14.78711 9.64066,2.62619 28.33574,2.69377 37.94531,0.13672 11.45483,-3.04805 20.12503,-7.80552 27.46484,-15.06836 7.91144,-7.82846 10.37438,-12.56409 9.68946,-18.64062 -0.27015,-2.39684 -1.05139,-5.03408 -1.73633,-5.85938 -1.97677,-2.38187 -6.31325,-1.79478 -9.5625,1.29492 -4.39851,4.18254 -11.55173,9.69616 -14.93945,11.51368 -10.26106,5.50507 -12.63505,6.08798 -24.5,6.02148 -13.61757,-0.0763 -17.80174,-1.55417 -26.25,-9.27539 -6.43195,-5.87843 -10.97742,-14.12936 -13.81446,-25.07422 -1.85327,-7.14964 -2.0399,-10.29986 -1.73632,-29.24609 0.37501,-23.4037 0.83552,-25.80804 7.58789,-39.51953 9.22718,-18.7369 27.38643,-27.40664 40.34765,-19.26563 2.5486,1.60078 6.5986,5.28877 9,8.19531 12.54639,15.18556 19.68492,18.08596 27.76953,11.28321 3.44151,-2.89584 5.49682,-8.90428 4.49414,-13.14063 0.35685,-1.47218 0.67044,-1.58359 1.28711,-2.68945 0.46946,-1.25781 7.0686,-8.47434 15.70703,-15.86914 19.36389,-16.57616 23.46949,-24.97709 17.27344,-35.3418 -3.97699,-6.65269 -8.25057,-10.01704 -12.76172,-10.11914 z m 532.8754,200.68199 c -10.24117,-3.31319 -20.36715,-11.24345 -25.62379,-20.06753 -1.18543,-1.98992 -2.15532,-4.48742 -2.15532,-5.55 0,-1.06259 -0.5559,-2.48787 -1.23533,-3.1673 -0.77646,-0.77646 -1.37368,-5.27753 -1.6078,-12.11741 -0.39617,-11.57464 0.63869,-16.58959 5.37738,-26.05873 2.85059,-5.69623 13.24776,-15.99917 20.58942,-20.40282 C 856.71037,472.6349 873.02652,466 876.15543,466 c 1.19283,0 4.45834,-0.65851 7.25668,-1.46336 2.79834,-0.80485 9.58789,-2.41766 15.08789,-3.58401 5.5,-1.16635 10.5625,-2.29371 11.25,-2.50525 3.02576,-0.93099 -0.26922,-22.50828 -4.4729,-29.291 C 900.2474,421.04089 894.85409,418 885.49018,418 c -8.63582,0 -12.98381,2.36508 -25.42758,13.83127 C 855.88379,435.68179 847.77932,439 842.55351,439 c -4.07262,0 -5.24052,-0.48701 -8.15351,-3.4 -2.78004,-2.78004 -3.4,-4.16072 -3.4,-7.57193 0,-11.0623 13.77295,-23.27333 32.08789,-28.44898 8.12353,-2.29564 26.61039,-2.11865 34.41211,0.32945 15.33561,4.81216 25.38705,12.50113 32.93219,25.19187 6.80491,11.44569 6.80013,11.40496 7.49747,63.89959 0.49727,37.43381 0.9217,48.0298 2.00278,50 1.54818,2.82147 5.73596,7 7.01549,7 1.59265,0 7.05207,7.0684 7.05207,9.13043 0,1.13345 -0.93064,3.3678 -2.06809,4.9652 L 949.86381,563 h -16.40885 c -18.86309,0 -18.6611,0.0987 -19.95363,-9.75 -0.37895,-2.8875 -0.93761,-5.25 -1.24146,-5.25 -0.30385,0 -2.62413,1.92573 -5.15617,4.27941 -5.08963,4.73111 -14.61459,9.71771 -23.19159,12.1415 -7.60469,2.14902 -21.74016,1.92029 -29.133,-0.47141 z m 27.75551,-17.04053 c 13.19007,-2.43832 21.18868,-9.64888 26.15838,-23.58119 1.3986,-3.92088 1.73007,-8.49085 1.76454,-24.32778 l 0.0425,-19.5 -9,0.17712 c -16.6599,0.32788 -33.09881,6.68631 -41.41787,16.02009 -7.84302,8.79967 -10.00148,20.59742 -6.06562,33.15349 3.33172,10.62872 8.09143,15.48546 17.38775,17.74219 2.80266,0.68036 5.12559,1.27529 5.16208,1.32206 0.0365,0.0468 2.72221,-0.40591 5.96828,-1.00598 z M 95.321682,397.99997 c -15.406434,0 -29.59921,7.51615 -43.490234,23.03125 -3.43173,3.83296 -6.597261,6.96875 -7.035156,6.96875 -0.437896,0 -0.800541,-1.9125 -0.806641,-4.25 -0.02056,-7.93896 -1.171802,-11.80101 -4.599609,-15.43554 l -3.322266,-3.52149 -12.283203,0.38672 c -13.499043,0.42526 -17.9297834,1.84905 -20.0195314,6.43555 -1.5787378,3.46495 0.9156446,7.74759 7.4140624,12.72656 3.213168,2.46187 5.787672,5.51381 7.167969,8.5 2.114764,4.57516 6.65312,9.18163 4.538058,35.707 0.406573,17.11622 -15.8279671,57.13312 -20.6748677,83.46081 -5.9579759,24.19017 -7.5523532,34.56449 0.9922783,44.05875 6.6462933,7.38483 7.0800414,7.4522 46.2636714,7.09766 35.577455,-0.32191 40.250631,0.21655 46.478516,5.36328 8.904461,7.35862 9.928261,15.59991 2.822266,22.71484 -5.129095,5.13558 -9.74213,5.64453 -51.136719,5.64453 -37.596522,0 -45.9310303,0.756 -47.98632817,4.35352 -3.89251613,6.81337 -3.04363673,10.90197 3.31054687,15.95117 4.998095,3.97179 13.1057633,4.53933 54.2011723,3.79297 41.839579,-0.75989 49.417263,-1.61331 56.460933,-6.35156 22.81933,-15.35054 22.35284,-50.03701 -0.88867,-66.07422 -8.99212,-6.20479 -13.360213,-6.89384 -49.693357,-7.8457 -23.729496,-0.62164 -39.835938,-2.19824 -39.835938,-3.89844 -0.0824,-7.72204 1.807498,-17.17703 3.664063,-25.63281 10.798427,-41.11312 14.665364,-61.94405 25.34375,-100.6836 4.784147,-13.38424 14.957353,-23.28106 27.875,-27.11718 14.521014,-4.31228 29.570582,5.12225 34.580082,21.67773 1.38214,4.56776 1.7112,12.17216 2.0625,47.43945 0.30374,30.49289 0.0948,43.09592 -0.76368,46 -0.76655,2.5932 -3.07645,5.83939 -6.57031,9.22852 -6.01658,5.83622 -6.99613,9.66598 -3.39062,13.27148 1.89082,1.89083 3.33366,2 26.42773,2 h 24.42774 l 2.1289,-2.70703 c 2.73619,-3.47849 2.00654,-6.96374 -2.15625,-10.29297 -1.71927,-1.375 -4.74629,-3.92725 -6.72656,-5.67187 l -3.60156,-3.17188 -0.59961,-48.82812 c -0.32963,-26.85536 -0.93195,-50.17813 -1.33985,-51.82813 -6.2087,-25.11469 -26.35056,-42.5 -49.238278,-42.5 z M 464.57143,561.4286 c -1.88134,-1.88133 -2.06825,-7.44306 -0.32143,-9.56409 0.6875,-0.83478 3.12985,-2.95774 5.42743,-4.71769 7.66362,-5.87031 7.59511,-5.28375 7.04418,-60.31017 -0.34088,-34.04717 -0.84825,-49.58352 -1.71626,-52.55449 C 473.77919,430.08535 468.71061,425 465.75381,425 c -1.73487,0 -6.33067,-4.83912 -7.13283,-7.51047 -0.33204,-1.10576 0.17991,-3.53383 1.13766,-5.39571 2.41299,-4.69089 10.22617,-7.05898 23.3565,-7.07909 8.25006,-0.0126 9.99206,0.28175 12.26998,2.07357 4.61883,3.63317 5.77405,7.27463 6.36299,20.05729 0.30039,6.51993 0.90895,11.85441 1.35234,11.85441 0.93451,0 2.46044,-2.04364 8.18642,-10.96387 5.29734,-8.25248 14.97258,-18.11941 20.55189,-20.95907 10.58634,-5.38806 24.15665,-4.83826 29.88307,1.21071 1.67251,1.76673 3.60108,4.96602 4.28572,7.10953 4.14264,12.97021 -9.58009,26.96581 -20.80721,21.22095 -4.0609,-2.07794 -10.43812,-2.85854 -13.58349,-1.66267 -4.5949,1.74697 -10.2055,8.00972 -15.56418,17.37329 -2.77897,4.85587 -5.05267,9.28644 -5.05267,9.8457 0,0.55927 -0.63439,2.21128 -1.40976,3.67114 -0.77536,1.45986 -2.23786,5.80429 -3.25,9.65429 -1.57325,5.98442 -1.84024,11.00047 -1.84024,34.57365 0,31.27139 0.25241,32.46173 7.99595,37.70798 5.12819,3.47435 5.47033,3.99257 5.48874,8.31338 0.0287,6.74666 -0.60737,6.90499 -27.742,6.90499 -20.57561,0 -24.32963,-0.2298 -25.67126,-1.57143 z m 114.88082,-1.07459 c -3.60296,-3.88766 -3.13625,-6.76381 1.89024,-11.649 2.38837,-2.32123 4.91951,-5.96881 5.62475,-8.10573 1.82406,-5.52695 2.07174,-97.50604 0.2857,-106.09925 -1.10219,-5.30303 -1.8282,-6.50415 -6.25,-10.34003 -5.79152,-5.02413 -6.5726,-8.8039 -2.74797,-13.29795 2.85914,-3.35958 7.32922,-4.81754 16.74503,-5.46154 9.6772,-0.66189 11.33405,0.53574 13.62619,9.84952 0.91366,3.7125 2.17548,6.75 2.80405,6.75 0.62857,0 2.74765,-2.14957 4.70908,-4.77683 4.38335,-5.87132 12.40024,-11.51144 20.36068,-14.32435 8.61254,-3.04333 21.56127,-2.32672 29.89214,1.65429 7.41033,3.54111 16.41162,11.81422 21.84399,20.07686 2.30343,3.50351 4.43011,6.36656 4.72596,6.36233 0.29585,-0.004 1.51825,-1.69174 2.71645,-3.75 4.80852,-8.26009 16.19719,-19.02711 24.86342,-23.50626 22.16711,-11.45708 47.71958,-5.26055 61.68494,14.95875 4.07501,5.89987 5.36808,8.72339 8.38312,18.30521 2.33871,7.43245 2.3601,7.92225 2.37497,54.38197 0.017,53.22294 -0.38641,50.5459 8.46037,56.1379 4.84071,3.05978 6.30806,6.36828 4.70011,10.5975 -1.84994,4.86573 -2.28032,4.93555 -28.66212,4.65038 L 752.71439,562.5 l -1.98745,-2.66295 c -2.56494,-3.43671 -1.69552,-7.20346 2.47529,-10.7242 1.70241,-1.43707 4.40223,-3.73785 5.99961,-5.11285 1.72457,-1.48447 3.27929,-4.12484 3.82739,-6.5 1.18211,-5.12257 1.20123,-71.1297 0.024,-83 -1.95811,-19.74485 -10.87918,-29.601 -26.92597,-29.74824 -6.29681,-0.0578 -8.49951,0.3758 -12.62731,2.48558 -8.92333,4.56084 -15.5326,12.42927 -19.62276,23.36122 -2.25029,6.01443 -2.20345,4.43392 -1.96389,66.26909 l 0.0866,22.36764 3.78892,3.63236 c 2.0839,1.99779 5.2339,4.82925 7,6.29212 3.8393,3.18013 4.25247,7.24661 1.1385,11.20537 L 711.85484,563 H 687.9432 664.03155 l -3.16693,-2.82966 c -2.59729,-2.32068 -3.04585,-3.31213 -2.49374,-5.51193 0.37027,-1.47525 2.10159,-3.9144 3.84739,-5.42034 5.94359,-5.127 7.78296,-7.52891 8.87704,-11.59201 0.74393,-2.76276 0.94086,-16.69124 0.61649,-43.6028 -0.43432,-36.033 -0.65636,-40.133 -2.50135,-46.18671 -2.25214,-7.38966 -4.2058,-10.86556 -8.68994,-15.46091 -12.8646,-13.18366 -35.74404,-7.99741 -44.12524,10.00219 l -2.37573,5.10217 -0.01,46.82692 -0.01,46.82693 2.86029,2.67307 c 1.57316,1.4702 4.49816,4.14716 6.5,5.9488 4.35053,3.91546 4.8132,7.77322 1.32526,11.04997 C 622.46668,562.9102 621.5355,563 602.1378,563 h -20.2333 l -2.45225,-2.64602 z m 394.10445,0.42351 C 972.70052,559.55512 972,556.85437 972,554.77583 c 0,-3.393 0.51461,-4.14887 5.03632,-7.39739 8.72333,-6.26709 8.313,-3.46195 8.39311,-57.37844 0.0635,-42.72041 -0.10979,-48.15367 -1.72182,-53.99624 -1.73439,-6.28602 -5.25523,-10.87378 -8.41714,-10.9678 -0.66524,-0.0198 -2.35274,-1.26886 -3.75,-2.77574 -3.03286,-3.2708 -3.29068,-7.72655 -0.64613,-11.16639 2.48697,-3.23487 13.3209,-6.03359 23.48758,-6.06752 7.69248,-0.0257 7.95948,0.0559 11.10978,3.39625 3.5483,3.76222 4.0192,5.68865 5.0916,20.82744 0.3799,5.3625 1.0093,9.75 1.3987,9.75 0.8595,0 4.018,-3.3945 4.018,-4.3182 0,-1.46132 8.1686,-12.30316 13.0662,-17.34211 2.8684,-2.95122 7.9644,-7.03749 11.3245,-9.0806 5.7942,-3.52316 6.5564,-3.71589 14.7788,-3.73692 7.2714,-0.0186 9.1259,0.3172 11.5,2.08236 7.2097,5.36052 9.1648,16.51703 4.163,23.75619 -5.31,7.68522 -11.2945,9.29692 -20.4424,5.50533 -6.564,-2.72065 -10.673,-2.02764 -16.2422,2.73936 -4.4534,3.81192 -12.2747,16.3318 -15.8644,25.39459 -4.3448,10.96933 -5.2835,19.21954 -5.2835,46.43761 0,29.32412 0.5214,31.97262 7.1133,36.13389 5.368,3.38869 7.2655,6.59591 6.4558,10.91193 -0.3603,1.92075 -1.5062,3.94773 -2.5464,4.50442 -1.1221,0.60053 -11.4517,1.01215 -25.40025,1.01215 -23.15996,0 -23.53216,-0.033 -25.06575,-2.22251 z M 1390.807,561.25 c -3.9803,-4.63438 -2.6739,-9.57029 3.7549,-14.18709 8.5844,-6.16481 7.9543,1.72039 7.8112,-97.76085 -0.094,-65.45723 -0.4463,-89.89039 -1.3655,-94.76196 -1.2245,-6.48937 -4.0115,-11.5401 -6.368,-11.5401 -0.6683,0 -2.7472,-1.279 -4.6197,-2.84223 -3.0807,-2.57192 -3.4045,-3.34234 -3.4045,-8.10064 0,-4.40175 0.3979,-5.56126 2.4423,-7.11737 3.1012,-2.3605 10.1158,-3.90894 21.0138,-4.6387 10.6163,-0.7109 15.0646,0.56509 17.8863,5.13058 2.0221,3.27188 2.0422,4.33106 2.0422,107.53526 0,118.42745 -0.743,108.57729 8.6427,114.58121 5.0026,3.20013 5.3573,3.69015 5.3573,7.40051 0,2.79982 -0.6464,4.57572 -2.1886,6.01242 -2.0746,1.93281 -3.4201,2.03896 -25.845,2.03896 -21.2907,0 -23.8067,-0.17501 -25.1594,-1.75 z" />
    <path
       style="fill:#372212;fill-opacity:1;stroke-width:1.2296"
       d="m -1389.0347,578.77366 c -30.6193,-5.38537 -53.2064,-30.68064 -59.1302,-66.21991 -2.1905,-13.14227 -1.574,-38.33812 1.2247,-50.04666 8.7166,-36.46708 34.6367,-58.35035 69.279,-58.48943 15.7436,-0.0632 24.7222,2.0675 37.2699,8.84449 8.2791,4.47151 11.875,7.34782 16.9605,13.56608 6.1648,7.53812 12.6223,20.21031 14.2183,27.90219 l 0.7465,3.59773 h -6.5177 c -5.2075,0 -6.6387,-0.46023 -7.1198,-2.28946 -1.8462,-7.01968 -6.4117,-14.96673 -12.5889,-21.91348 -12.3889,-13.93225 -28.199,-20.13069 -47.336,-18.55837 -26.1729,2.15039 -43.3986,18.29826 -51.7668,48.52755 -2.1693,7.83612 -2.5634,12.22835 -2.5344,28.24872 0.031,17.23132 0.3259,19.92907 3.2143,29.43602 5.0319,16.56254 14.5287,30.53214 25.8729,38.05815 15.7539,10.45164 44.2302,10.89159 60.7132,0.93799 8.6188,-5.2046 18.4137,-16.84054 21.6755,-25.74953 l 2.6946,-7.35941 h 6.1434 c 5.5308,0 6.1434,0.28272 6.1434,2.83495 0,4.25263 -7.6384,19.28645 -13.1005,25.78422 -12.2793,14.60748 -28.9776,22.32501 -49.8827,23.0544 -6.9917,0.24394 -14.2724,0.16913 -16.1792,-0.16624 z m 143.7047,-0.49165 c -25.9045,-4.66101 -47.2419,-26.93181 -54.7752,-57.17115 -1.1515,-4.6221 -2.1264,-15.01809 -2.4978,-26.63376 -0.5287,-16.53774 -0.2867,-20.50926 1.8333,-30.09015 6.8509,-30.9607 23.7092,-50.87542 49.258,-58.1885 9.9956,-2.86111 27.8462,-2.91518 39.5838,-0.11984 15.6542,3.72792 31.2092,15.64 39.2538,30.06056 2.4184,4.33511 8.4144,19.57237 8.4144,21.38291 0,0.22335 -2.8276,0.40607 -6.2837,0.40607 h -6.2837 l -3.7313,-8.58026 c -11.7367,-26.98913 -37.1585,-39.60592 -65.9043,-32.70833 -21.6293,5.18999 -36.9185,23.97747 -42.1554,51.80076 -2.7014,14.35297 -1.6663,40.35657 2.1387,53.72065 4.6596,16.3663 13.3721,28.94113 25.8201,37.26645 15.4556,10.33683 42.5983,10.84884 59.5517,1.12335 3.2737,-1.87794 8.4888,-6.10051 11.5892,-9.38349 5.6161,-5.94696 12.5465,-17.87688 12.5465,-21.59742 0,-1.51741 1.4089,-1.91898 6.2731,-1.7881 3.4502,0.0929 6.5773,0.51317 6.9491,0.93408 0.957,1.08336 -2.3826,9.67429 -6.7989,17.48982 -7.7127,13.64892 -20.3704,24.31864 -34.9892,29.49371 -8.9659,3.17398 -29.2051,4.48755 -39.7922,2.58264 z m 454.25074,0.80503 c -0.26485,-0.28049 -2.59529,-0.83664 -5.17877,-1.23587 -14.10501,-2.17967 -27.69011,-12.98547 -33.67718,-26.78734 -2.94089,-6.77958 -3.22918,-8.72892 -3.22918,-21.8351 0,-16.24285 1.53199,-21.2529 9.87918,-32.30786 5.45624,-7.2262 19.70668,-15.67183 32.6499,-19.35019 9.44817,-2.6851 34.63125,-5.21664 52.11256,-5.23865 l 10.27879,-0.0131 -0.63586,-9.48494 c -0.83779,-12.49708 -3.48489,-19.5503 -9.63873,-25.68246 -6.91465,-6.89027 -16.20153,-9.8503 -31.08479,-9.90774 -13.09777,-0.0505 -20.9419,2.44504 -27.79973,8.84432 -4.31211,4.02379 -8.93375,13.12316 -10.30135,20.28193 -0.73196,3.83148 -1.18018,4.25121 -3.89827,3.6505 -5.15463,-1.13919 -16.85646,-2.61762 -18.2965,-2.31162 -2.36753,0.50311 -2.7906,-2.07651 -1.4014,-8.54462 4.74766,-22.10499 18.92134,-36.2056 41.71347,-41.49845 11.69784,-2.71652 40.31952,-2.77118 50.34188,-0.0962 13.53529,3.61265 23.46636,10.92556 28.78226,21.19434 5.56858,10.75686 6.11606,16.79608 6.14257,67.75785 0.0148,28.44975 0.49953,49.03402 1.22427,51.98823 1.4705,5.99417 4.59071,8.07701 10.49789,7.00767 l 4.46862,-0.80878 v 10.38014 10.38015 l -4.33371,1.63439 c -2.38354,0.89892 -6.67391,1.66218 -9.53415,1.69616 -14.54289,0.17273 -21.97602,-5.98814 -24.79425,-20.55044 l -0.71335,-3.68597 -6.48188,6.7064 c -12.23768,12.66154 -26.19733,18.27407 -45.53574,18.30784 -6.09127,0.0105 -11.29172,-0.21016 -11.55655,-0.49065 z m 27.69331,-21.70078 c 13.25638,-2.84601 26.89851,-14.01996 31.68471,-25.9522 1.93677,-4.82843 2.55533,-9.39434 2.91301,-21.50228 l 0.4541,-15.37214 h -19.08837 c -34.35879,0 -51.07947,6.55495 -57.83585,22.67317 -2.32357,5.54319 -2.46962,16.4341 -0.29924,22.3145 5.33126,14.44448 23.0571,21.94265 42.17164,17.83895 z m 355.60075,20.254 c -24.31846,-5.72933 -41.90707,-24.4893 -49.43431,-52.72664 -3.3254,-12.47475 -4.21792,-42.96702 -1.66634,-56.93386 5.16612,-28.28005 21.0988,-49.92499 42.70632,-58.0177 8.52041,-3.19118 11.16051,-3.54848 26.78682,-3.62528 11.64334,-0.0572 19.23196,0.5214 23.11311,1.76234 21.77786,6.96326 37.9367,24.52615 44.64158,48.52077 1.67235,5.98486 2.56428,13.63837 3.01106,25.83828 l 0.6348,17.33454 h -58.99228 -58.99239 l 0.56904,5.56014 c 0.91632,8.95385 3.6001,20.1913 6.20021,25.96096 3.64389,8.08568 11.86708,16.59789 20.51461,21.23557 7.41573,3.97706 8.35562,4.15281 22.1894,4.14912 13.47587,-0.004 14.93037,-0.25702 21.66565,-3.77491 7.9872,-4.17181 15.6047,-12.51454 18.42242,-20.17613 0.97641,-2.65484 2.3669,-5.29032 3.08999,-5.8566 1.81854,-1.42425 21.93561,-0.61031 22.89631,0.92637 1.16085,1.85706 -2.727,12.44424 -7.65865,20.85511 -7.16864,12.22627 -17.14611,20.63778 -31.69743,26.72264 -6.45353,2.69863 -10.18028,3.27157 -23.82915,3.66349 -11.07442,0.31798 -18.70059,-0.12952 -24.17077,-1.41821 z m 64.04088,-101.33197 c 0,-11.29307 -6.45503,-27.96372 -14.05809,-36.30623 -16.28653,-17.8705 -47.58769,-17.33631 -63.3766,1.08161 -5.17595,6.03775 -9.76899,15.90515 -12.18315,26.17369 -3.02227,12.85457 -7.76485,11.60307 43.96945,11.60307 44.49401,0 45.64839,-0.0645 45.64839,-2.55214 z m -1235.10678,99.60811 -3.7559,-0.40996 v -82.99209 -82.99209 h 6.451 6.451 l -0.3838,9.16081 c -0.3903,9.31529 0.309,11.18425 2.4724,6.60818 2.3532,-4.97779 15.1609,-14.76041 23.5446,-17.98367 6.422,-2.46905 10.7231,-3.18751 19.2568,-3.21665 25.6402,-0.0875 44.8341,11.42608 54.7849,32.86305 7.1596,15.42416 7.5687,19.92727 7.5913,83.56591 l 0.02,56.70455 -4.9115,-0.70963 c -2.7014,-0.39029 -5.2673,-0.73953 -5.702,-0.7761 -0.4349,-0.0366 -0.963,-25.823 -1.1739,-57.30319 -0.3742,-55.8711 -0.4468,-57.43699 -3.0428,-65.63195 -8.1195,-25.63264 -28.4928,-40.01217 -53.0058,-37.41178 -16.1403,1.7122 -29.4019,12.01768 -36.0167,27.98842 l -3.0455,7.35247 -0.3408,62.32849 -0.3408,62.32851 -2.5484,0.46833 c -1.4015,0.2576 -4.2384,0.28387 -6.3042,0.0584 z m 427.7897,-0.13516 c -0.2673,-0.2998 -0.4861,-37.83072 -0.4861,-83.40205 v -82.85693 h 6.934 6.9339 l 0.061,9.48494 c 0.06,9.34218 0.09,9.43571 2.0224,6.21427 3.5917,-5.98806 8.8196,-10.71716 16.4075,-14.84192 6.7353,-3.66133 8.8257,-4.13145 20.2239,-4.54835 10.3735,-0.37942 13.7753,-0.009 18.4905,2.01175 5.687,2.43755 5.7726,2.55675 5.414,7.54103 -0.5198,7.22675 -3.3226,12.9137 -5.781,11.7297 -12.1581,-5.85548 -26.282,-6.80841 -34.9392,-2.35734 -10.3018,5.29665 -17.9031,15.48342 -20.8476,27.93874 -0.9309,3.93814 -1.6223,25.37791 -2.0882,64.75924 l -0.6964,58.87204 h -5.5811 c -3.0697,0 -5.7999,-0.2453 -6.0672,-0.54512 z m 94.5666,0.1905 -4.9115,-0.44997 v -82.99975 -82.99976 h 11.5565 11.5566 v 11.1658 11.16579 l 3.7558,-4.93795 c 12.1882,-16.02407 26.5569,-22.22373 48.67048,-20.99976 15.49067,0.8574 23.50794,4.23935 31.47056,13.27534 3.23955,3.67627 6.43846,7.83164 7.10868,9.23416 1.13013,2.36498 1.73725,2.00641 8.36573,-4.94079 13.27148,-13.90965 25.89204,-18.52504 48.13703,-17.60395 10.76053,0.44556 15.18933,1.22272 20.61037,3.61671 8.2385,3.6382 17.91868,13.44933 21.47476,21.76527 5.4874,12.83237 5.68408,15.67452 5.69861,82.3496 l 0.0138,62.87981 -11.26764,-0.24817 c -6.19721,-0.13648 -11.88964,-0.321 -12.64987,-0.41002 -1.04551,-0.12246 -1.46778,-15.21993 -1.73348,-61.97751 -0.349,-61.41616 -0.36836,-61.85455 -2.99813,-67.83574 -3.18542,-7.24501 -7.15367,-11.68179 -14.11013,-15.77616 -4.35466,-2.56301 -6.89202,-3.05228 -15.60135,-3.00829 -13.13962,0.0663 -20.33457,3.3334 -27.66339,12.56126 -9.20322,11.58797 -9.13817,11.07622 -9.84685,77.45489 l -0.62639,58.67026 -5.77828,0.56666 c -3.17805,0.31167 -8.74472,0.20061 -12.37036,-0.24679 l -6.59208,-0.81345 -0.34185,-61.04001 c -0.32928,-58.78782 -0.43122,-61.25723 -2.76317,-66.92721 -3.0683,-7.46038 -8.83197,-13.95369 -15.49138,-17.45247 -3.95647,-2.07869 -7.55598,-2.74343 -15.04782,-2.77897 -8.85825,-0.042 -10.62885,0.38882 -17.62755,4.28925 -9.4253,5.25282 -14.7674,12.5108 -18.3812,24.97332 -2.3556,8.12347 -2.5418,11.88347 -3.1698,64.0029 l -0.6673,55.37242 -6.9339,0.27661 c -3.8137,0.15214 -9.1441,0.0742 -11.8455,-0.17333 z m 376.45476,-82.95137 v -83.49811 h 12.13438 12.13437 l 0.0266,12.75561 0.0266,12.7556 1.96716,-4.57893 c 2.88995,-6.72694 11.8056,-16.03276 19.52838,-20.38319 6.38835,-3.59866 7.57347,-3.81132 21.26198,-3.81542 11.81403,-0.004 15.06247,0.41547 17.55521,2.26443 l 3.05856,2.26877 -2.29201,9.50564 c -1.2607,5.2281 -2.54163,10.45247 -2.84649,11.60969 -0.5011,1.90158 -1.19137,1.86052 -7.1735,-0.42666 -13.30021,-5.08511 -28.54701,-0.65064 -37.79375,10.99209 -10.53299,13.26226 -12.13958,24.93726 -12.15299,88.31402 l -0.0116,44.72799 -4.91153,0.66889 c -2.70135,0.36787 -8.42183,0.59436 -12.7122,0.50329 l -7.80067,-0.16559 v -83.49812 z m 146.47931,82.91811 c -1.76803,-0.24481 -3.17805,-1.25244 -3.17805,-2.27118 0,-1.0071 -0.76435,-3.76442 -1.69858,-6.12736 -0.93423,-2.36294 -8.1327,-24.01839 -15.99647,-48.12322 -7.86377,-24.10482 -19.06045,-58.37875 -24.88149,-76.16427 -5.82092,-17.78553 -10.58361,-32.65071 -10.58361,-33.03375 0,-0.38305 6.65611,-0.69644 14.79135,-0.69644 h 14.79135 l 5.96607,20.60521 c 6.46312,22.32183 33.39197,113.55824 34.46315,116.76287 0.36079,1.07932 4.38733,-11.01555 8.94801,-26.87749 4.56068,-15.86195 13.73542,-47.2113 20.3883,-69.66524 l 12.09636,-40.82535 h 14.1948 c 7.80726,0 14.19492,0.30235 14.19492,0.67188 0,0.36954 -0.50837,1.69416 -1.12965,2.94361 -0.62128,1.24944 -5.73136,16.401 -11.35559,33.67013 -12.92797,39.69482 -42.16548,128.04432 -42.597,128.71931 -0.41603,0.65047 -24.20012,0.99474 -28.41387,0.41129 z m 225.25655,0.16983 c -0.42378,-0.47969 -0.76701,-50.96246 -0.76285,-112.18393 l 0.0116,-111.31176 9.69548,-4.25187 c 5.33254,-2.33852 10.78955,-4.25186 12.12676,-4.25186 h 2.43127 v 115.61813 115.61814 l -3.61143,0.81766 c -4.79874,1.08649 -18.91322,1.0478 -19.88686,-0.0545 z"
       id="path506" />
    <path
       style="fill:none;stroke:#000000;stroke-width:16.9648;stroke-linecap:butt;stroke-linejoin:miter;stroke-dasharray:none;stroke-opacity:1;marker-end:url(#Arrow5)"
       d="m -231.42718,478.54043 113.69943,0.2793 2.048,-0.12572 v 0 0"
       id="path319" />
  </g>
</svg>
