<?xml version="1.0" encoding="UTF-8" standalone="no"?>
<!-- Created with Inkscape (http://www.inkscape.org/) -->

<svg
   version="1.1"
   id="svg2"
   width="1123.0034"
   height="179.98549"
   viewBox="0 0 1123.0034 179.98549"
   sodipodi:docname="marvel_goodreads_old.svg"
   inkscape:version="1.2.2 (b0a8486541, 2022-12-01)"
   xmlns:inkscape="http://www.inkscape.org/namespaces/inkscape"
   xmlns:sodipodi="http://sodipodi.sourceforge.net/DTD/sodipodi-0.dtd"
   xmlns="http://www.w3.org/2000/svg"
   xmlns:svg="http://www.w3.org/2000/svg">
  <defs
     id="defs6" />
  <sodipodi:namedview
     id="namedview4"
     pagecolor="#ffffff"
     bordercolor="#666666"
     borderopacity="1.0"
     inkscape:showpageshadow="2"
     inkscape:pageopacity="0.0"
     inkscape:pagecheckerboard="0"
     inkscape:deskcolor="#d1d1d1"
     showgrid="false"
     inkscape:zoom="0.97916667"
     inkscape:cx="370.21277"
     inkscape:cy="440.68085"
     inkscape:window-width="2494"
     inkscape:window-height="1371"
     inkscape:window-x="66"
     inkscape:window-y="32"
     inkscape:window-maximized="1"
     inkscape:current-layer="g8" />
  <g
     inkscape:groupmode="layer"
     inkscape:label="Image"
     id="g8"
     transform="translate(-205.33681,-185.90999)">
    <path
       style="fill:#372212;fill-opacity:1"
       d="m 372.83681,365.28063 c -26.49522,-4.11641 -46.04005,-23.45135 -51.16593,-50.61649 -1.89553,-10.04555 -1.36205,-29.3045 1.05966,-38.25415 7.5426,-27.87433 29.97151,-44.60124 59.94778,-44.70755 13.62312,-0.0483 21.39242,1.58034 32.25007,6.76046 7.16396,3.41789 10.27562,5.61645 14.6761,10.3695 5.33451,5.76191 10.92219,15.44815 12.3032,21.32759 l 0.64594,2.75 h -5.6398 c -4.50607,0 -5.74453,-0.35179 -6.16084,-1.75 -1.59757,-5.36563 -5.54808,-11.44011 -10.8933,-16.75 -10.72023,-10.64939 -24.40087,-15.38729 -40.96035,-14.18545 -22.64761,1.64369 -37.55321,13.98663 -44.79432,37.09299 -1.87706,5.98969 -2.21803,9.34698 -2.19291,21.59246 0.027,13.1711 0.28191,15.23318 2.78122,22.5 4.35419,12.65991 12.57196,23.33785 22.38812,29.0905 13.63206,7.98892 38.27279,8.3252 52.53575,0.71697 7.45792,-3.97824 15.93359,-12.8724 18.75608,-19.68216 l 2.33156,-5.62531 h 5.31598 c 4.78585,0 5.31599,0.2161 5.31599,2.16695 0,3.25058 -6.60964,14.74198 -11.33606,19.70868 -10.62535,11.16551 -25.07462,17.06456 -43.16394,17.62208 -6.05,0.18646 -12.35,0.12928 -14,-0.12707 z m 124.3491,-0.3758 c -22.41544,-3.56273 -40.87898,-20.58586 -47.39754,-43.69989 -0.99636,-3.533 -1.84001,-11.47938 -2.16136,-20.35804 -0.45751,-12.64095 -0.24814,-15.67666 1.58634,-23 5.92812,-23.66542 20.51578,-38.88763 42.62346,-44.47753 8.64921,-2.18694 24.09551,-2.22827 34.2523,-0.0916 13.54561,2.84951 27.00554,11.95474 33.96662,22.97738 2.09266,3.31363 7.28108,14.96053 7.28108,16.34445 0,0.17072 -2.4468,0.31039 -5.43734,0.31039 h -5.43734 l -3.22873,-6.55849 c -10.15596,-20.62968 -32.1536,-30.27357 -57.02766,-25.00126 -18.71609,3.96707 -31.94602,18.32765 -36.4775,39.59493 -2.33761,10.97098 -1.44183,30.84734 1.85059,41.06244 4.03206,12.5099 11.57107,22.12172 22.34245,28.48534 13.37388,7.90116 36.86071,8.29253 51.53073,0.85866 2.83271,-1.43544 7.34537,-4.66305 10.02813,-7.17246 4.85969,-4.54567 10.85667,-13.66454 10.85667,-16.50841 0,-1.15986 1.21908,-1.46681 5.42816,-1.36677 2.9855,0.071 5.6914,0.39225 6.01313,0.71398 0.82809,0.82809 -2.06172,7.39474 -5.8832,13.36869 -6.6738,10.43282 -17.62667,18.58843 -30.27642,22.5441 -7.7583,2.42609 -25.27154,3.43015 -34.43257,1.97409 z m 393.06757,0.61534 c -0.22917,-0.2144 -2.24573,-0.6395 -4.48124,-0.94466 -12.2052,-1.66607 -23.96052,-9.9257 -29.14119,-20.47543 -2.54478,-5.18211 -2.79424,-6.67212 -2.79424,-16.69009 0,-12.41554 1.32564,-16.24507 8.54855,-24.69515 4.72134,-5.52349 17.05238,-11.97907 28.25228,-14.7907 8.17559,-2.05241 29.96676,-3.98744 45.09351,-4.00426 l 8.89434,-0.01 -0.55022,-7.25 c -0.72495,-9.55239 -3.01551,-14.94366 -8.34049,-19.6309 -5.98331,-5.26671 -14.01934,-7.52927 -26.89797,-7.57317 -11.33363,-0.0386 -18.12123,1.86891 -24.05538,6.76033 -3.73131,3.07566 -7.73046,10.03094 -8.91386,15.50289 -0.63337,2.92867 -1.02122,3.2495 -3.37321,2.79033 -4.46035,-0.87076 -14.58606,-2.00083 -15.83214,-1.76693 -2.04865,0.38456 -2.41474,-1.58722 -1.21265,-6.53125 4.1082,-16.89638 16.37282,-27.67446 36.09508,-31.72016 10.12225,-2.07642 34.88887,-2.1182 43.56132,-0.0735 11.71222,2.7614 20.30567,8.35117 24.90557,16.20031 4.81855,8.22222 5.29229,12.83842 5.31523,51.79205 0.0128,21.74613 0.43225,37.48012 1.05937,39.73823 1.27244,4.58176 3.97239,6.17382 9.08393,5.35645 l 3.86674,-0.61821 v 7.93427 7.93427 l -3.75,1.24928 c -2.0625,0.6871 -5.775,1.27052 -8.25,1.29649 -12.5841,0.13203 -19.01606,-4.57715 -21.4547,-15.70813 l -0.61727,-2.81745 -5.60884,5.12617 c -10.58938,9.6781 -22.6688,13.96815 -39.40252,13.99396 -5.27084,0.008 -9.77084,-0.16064 -10,-0.37504 z m 23.9633,-16.58742 c 11.47087,-2.1754 23.27554,-10.71643 27.41709,-19.83707 1.6759,-3.69071 2.21115,-7.18075 2.52065,-16.43569 l 0.39294,-11.75 h -16.51735 c -29.731,0 -44.19957,5.0104 -50.04593,17.33068 -2.01061,4.23705 -2.13699,12.56173 -0.25894,17.05653 4.61319,11.04092 19.95154,16.7723 36.49154,13.63555 z m 307.70482,15.48155 c -21.043,-4.37933 -36.2626,-18.71888 -42.776,-40.30265 -2.8775,-9.53532 -3.6498,-32.84269 -1.4419,-43.51852 4.4703,-21.61641 18.257,-38.16115 36.9542,-44.34697 7.3728,-2.43924 9.6573,-2.71235 23.1789,-2.77105 10.0751,-0.0437 16.6416,0.39854 20,1.34708 18.8446,5.3225 32.827,18.74704 38.6288,37.0878 1.4471,4.57465 2.2189,10.42476 2.6055,19.75 l 0.5493,13.25 h -51.0466 -51.0467 l 0.4924,4.25 c 0.7929,6.84405 3.1152,15.43362 5.3651,19.84377 3.1531,6.18045 10.2687,12.68693 17.7515,16.23183 6.4169,3.03994 7.2302,3.17428 19.2007,3.17146 11.6608,-0.003 12.9194,-0.19646 18.7475,-2.88543 6.9114,-3.1888 13.5029,-9.56573 15.9411,-15.42202 0.8449,-2.02928 2.0481,-4.04376 2.6738,-4.47661 1.5736,-1.08865 18.9811,-0.4665 19.8124,0.70809 1.0045,1.41948 -2.3597,9.512 -6.6271,15.94102 -6.2031,9.34539 -14.8367,15.77489 -27.4281,20.42597 -5.5843,2.06275 -8.8091,2.50069 -20.6196,2.80026 -9.5828,0.24306 -16.1818,-0.099 -20.9152,-1.08403 z m 55.4152,-77.45509 c 0,-8.63208 -5.5856,-21.37462 -12.1646,-27.75138 -14.0929,-13.65967 -41.1781,-13.25135 -54.8404,0.82675 -4.4788,4.61507 -8.4532,12.15741 -10.5422,20.00637 -2.6152,9.82565 -6.719,8.86904 38.0472,8.86904 38.5011,0 39.5,-0.0493 39.5,-1.95078 z m -1068.74999,76.13742 -3.25,-0.31336 v -63.43664 -63.43664 h 5.58206 5.58206 l -0.33206,7.00225 c -0.33766,7.12032 0.26742,8.5489 2.13939,5.05109 2.03631,-3.80487 13.11886,-11.28241 20.37336,-13.74617 5.55703,-1.88727 9.27885,-2.43644 16.66312,-2.45871 22.18672,-0.0669 38.79542,8.73375 47.4059,25.11952 6.19535,11.78976 6.54932,15.2318 6.56881,63.87525 l 0.0174,43.34324 -4.25,-0.54242 c -2.3375,-0.29833 -4.55781,-0.56528 -4.93402,-0.59323 -0.37622,-0.028 -0.83331,-19.73832 -1.01577,-43.80082 -0.32383,-42.70618 -0.38664,-43.9031 -2.63289,-50.16708 -7.02592,-19.59281 -24.65511,-30.58409 -45.86647,-28.59643 -13.96633,1.30876 -25.44169,9.18595 -31.16568,21.3935 l -2.63521,5.62001 -0.29494,47.64201 -0.29495,47.64202 -2.20505,0.35798 c -1.21279,0.1969 -3.66756,0.21698 -5.45506,0.0446 z m 370.17059,-0.10331 c -0.23133,-0.22916 -0.42059,-28.91666 -0.42059,-63.75 v -63.33333 h 6 6 l 0.0525,7.25 c 0.0517,7.14088 0.078,7.21237 1.75,4.75 3.10794,-4.57709 7.63172,-8.19187 14.19755,-11.34471 5.82816,-2.79861 7.63697,-3.15796 17.5,-3.47662 8.97629,-0.29002 11.91987,-0.007 16,1.53772 4.92097,1.86319 4.99502,1.9543 4.68479,5.76413 -0.4498,5.52391 -2.87512,9.87084 -5.00238,8.96583 -10.52052,-4.47575 -22.74205,-5.20414 -30.23322,-1.80188 -8.91427,4.0486 -15.49171,11.83506 -18.03961,21.35553 -0.80559,3.01019 -1.40382,19.3981 -1.80694,49.5 l -0.60264,45 h -4.82941 c -2.65618,0 -5.01868,-0.1875 -5.25,-0.41667 z m 81.82941,0.14561 -4.25,-0.34394 v -63.4425 -63.4425 h 10 10 v 8.5348 8.53479 l 3.25,-3.77442 c 10.54654,-12.24831 22.97993,-16.98714 42.115,-16.05158 13.40423,0.65537 20.34165,3.24043 27.23178,10.14727 2.80322,2.81003 5.57127,5.98627 6.15121,7.05831 0.97792,1.80772 1.50326,1.53364 7.23895,-3.77659 11.48394,-10.63211 22.40464,-14.15998 41.65345,-13.45592 9.31119,0.34057 13.14347,0.93461 17.83435,2.7645 7.12886,2.78093 15.50521,10.28026 18.58232,16.63671 4.7483,9.80868 4.91849,11.98113 4.93107,62.94554 l 0.0119,48.06342 -9.75,-0.18969 c -5.3625,-0.10432 -10.28822,-0.24536 -10.94605,-0.31341 -0.90469,-0.0936 -1.27009,-11.63365 -1.5,-47.37373 -0.30199,-46.94465 -0.31875,-47.27974 -2.59431,-51.85158 -2.75638,-5.53787 -6.19014,-8.92921 -12.20964,-12.05882 -3.76813,-1.95909 -5.96373,-2.33307 -13.5,-2.29945 -11.36984,0.0507 -17.5957,2.54795 -23.9374,9.60145 -7.96364,8.85749 -7.90735,8.46633 -8.52058,59.20417 l -0.54202,44.84577 -5,0.43314 c -2.75,0.23823 -7.56689,0.15334 -10.70419,-0.18864 l -5.7042,-0.62178 -0.2958,-46.65713 c -0.28493,-44.93563 -0.37314,-46.82317 -2.391,-51.15713 -2.65503,-5.70249 -7.64239,-10.66578 -13.40484,-13.34014 -3.42358,-1.58889 -6.53827,-2.097 -13.02103,-2.12416 -7.66514,-0.0321 -9.19724,0.2972 -15.25327,3.27857 -8.15581,4.0151 -12.77841,9.56288 -15.90545,19.08885 -2.03831,6.20933 -2.19945,9.08336 -2.74289,48.92188 l -0.57736,42.325 -6,0.21143 c -3.3,0.11629 -7.9125,0.0567 -10.25,-0.13249 z m 325.75,-63.40551 v -63.82343 h 10.5 10.49999 l 0.023,9.75 0.023,9.75 1.7022,-3.5 c 2.5007,-5.14187 10.2155,-12.25495 16.8981,-15.58029 5.5279,-2.75071 6.5534,-2.91326 18.3982,-2.91639 10.2228,-0.003 13.0337,0.31757 15.1907,1.73086 l 2.6466,1.73418 -1.9833,7.26582 c -1.0909,3.9962 -2.1993,7.98955 -2.4631,8.8741 -0.4336,1.45351 -1.0309,1.42212 -6.2073,-0.32613 -11.5088,-3.8869 -24.702,-0.49733 -32.7033,8.40202 -9.1143,10.13727 -10.5045,19.06129 -10.5161,67.50456 l -0.01,34.18872 -4.25,0.51128 c -2.3375,0.28119 -7.28749,0.45431 -10.99999,0.3847 l -6.75,-0.12657 v -63.82343 z m 126.74999,63.38009 c -1.5299,-0.18713 -2.75,-0.95733 -2.75,-1.73602 0,-0.7698 -0.6614,-2.87741 -1.4698,-4.68357 -0.8084,-1.80616 -7.0373,-18.35893 -13.8419,-36.78393 -6.8046,-18.425 -16.4932,-44.62295 -21.5302,-58.21766 -5.0369,-13.59472 -9.1581,-24.95722 -9.1581,-25.25 0,-0.29279 5.7596,-0.53234 12.7991,-0.53234 h 12.7991 l 5.1625,15.75 c 5.5926,17.06213 28.8944,86.80048 29.8213,89.25 0.3122,0.825 3.7964,-8.41995 7.7428,-20.54434 3.9464,-12.12439 11.8854,-36.08689 17.6422,-53.25 l 10.4671,-31.20566 h 12.2829 c 6.7557,0 12.283,0.23111 12.283,0.51357 0,0.28246 -0.4399,1.29496 -0.9775,2.25 -0.5376,0.95504 -4.9594,12.53643 -9.8261,25.73643 -11.1867,30.34152 -36.4862,97.8732 -36.8596,98.38914 -0.36,0.4972 -20.9406,0.76035 -24.5868,0.31438 z m 194.9167,0.12981 c -0.3667,-0.36666 -0.6637,-38.95416 -0.6601,-85.75 l 0.01,-85.08333 8.3896,-3.25 c 4.6143,-1.7875 9.3363,-3.25 10.4934,-3.25 h 2.1038 v 88.375 88.375 l -3.125,0.625 c -4.1524,0.83048 -16.3658,0.8009 -17.2083,-0.0417 z"
       id="path506" />
  </g>
</svg>
