<?xml version="1.0" encoding="UTF-8" standalone="no"?>
<svg
   xmlns:dc="http://purl.org/dc/elements/1.1/"
   xmlns:cc="http://creativecommons.org/ns#"
   xmlns:rdf="http://www.w3.org/1999/02/22-rdf-syntax-ns#"
   xmlns:svg="http://www.w3.org/2000/svg"
   xmlns="http://www.w3.org/2000/svg"
   id="svg93"
   height="6.0700002mm"
   width="47.209999mm"
   version="1.0">
  <metadata
     id="metadata97">
    <rdf:RDF>
      <cc:Work
         rdf:about="">
        <dc:format>image/svg+xml</dc:format>
        <dc:type
           rdf:resource="http://purl.org/dc/dcmitype/StillImage" />
      </cc:Work>
    </rdf:RDF>
  </metadata>
  <defs
     id="defs3">
    <pattern
       y="0"
       x="0"
       height="6"
       width="6"
       patternUnits="userSpaceOnUse"
       id="EMFhbasepattern" />
  </defs>
  <path
     id="path5"
     d="  M 0.079995845,0.39997923   L 0.079995845,0.39997923   L 8.6795492,0.39997923   C 13.609293,0.39997923 16.879123,3.0698406 16.879123,7.719599   C 16.879123,12.659342 13.499299,15.269207 8.4595606,15.269207   L 4.6297595,15.269207   L 4.6297595,21.358891   L 0.079995845,21.358891   L 0.079995845,0.39997923   z  M 8.1795752,11.269415   L 8.1795752,11.269415   C 10.669446,11.269415 12.229365,10.109475 12.229365,7.8895902   C 12.229365,5.6197081 10.78944,4.3397746 8.239572,4.3397746   L 4.6297595,4.3397746   L 4.6297595,11.269415   L 8.1795752,11.269415   z "
     style="fill:#ffffff;fill-rule:evenodd;fill-opacity:1;stroke:none;" />
  <path
     id="path7"
     d="  M 17.999065,14.889227   L 17.999065,14.889227   L 22.668823,14.889227   C 22.888811,16.709132 24.148746,17.979066 26.838606,17.979066   C 29.198483,17.979066 30.568412,16.929121 30.568412,15.389201   C 30.568412,13.899278 29.468469,13.28931 27.608566,12.959327   L 25.188692,12.569347   C 20.858917,11.909381 18.609033,10.029479 18.609033,6.5996572   C 18.609033,2.6298634 21.628877,0.079995845 26.618617,0.079995845   C 31.338372,0.079995845 34.358215,2.4598722 34.798193,6.4396655   L 30.188432,6.4396655   C 29.858449,4.7797517 28.588515,3.7898032 26.508623,3.7898032   C 24.528726,3.7898032 23.218794,4.7297543 23.218794,6.219677   C 23.218794,7.6496027 24.208743,8.259571 26.128643,8.5895539   L 28.538518,8.9795336   C 32.658304,9.6394993 35.118176,11.409407 35.118176,14.949224   C 35.118176,19.139006 31.938341,21.678874 26.668615,21.678874   C 21.348891,21.678874 18.609033,19.249 17.999065,14.889227   z "
     style="fill:#ffffff;fill-rule:evenodd;fill-opacity:1;stroke:none;" />
  <path
     id="path9"
     d="  M 37.35806,0.39997923   L 37.35806,0.39997923   L 41.997819,0.39997923   L 41.997819,21.358891   L 37.35806,21.358891   L 37.35806,0.39997923   z "
     style="fill:#ffffff;fill-rule:evenodd;fill-opacity:1;stroke:none;" />
  <path
     id="path11"
     d="  M 50.957353,9.1795232   L 50.957353,9.1795232   C 50.957353,7.3396188 52.16729,6.1596801 53.817205,6.1596801   C 55.197133,6.1596801 56.127085,6.8896422 56.397071,8.2295726   L 55.307127,8.2295726   C 55.087139,7.5596074 54.647162,7.0596333 53.817205,7.0596333   C 52.777259,7.0596333 52.057296,7.8895902 52.057296,9.1795232   C 52.057296,10.459457 52.777259,11.299413 53.817205,11.299413   C 54.647162,11.299413 55.137136,10.78944 55.307127,10.129474   L 56.397071,10.129474   C 56.127085,11.459405 55.197133,12.239364 53.817205,12.239364   C 52.117293,12.239364 50.957353,11.019428 50.957353,9.1795232   z "
     style="fill:#ffffff;fill-rule:evenodd;fill-opacity:1;stroke:none;" />
  <path
     id="path13"
     d="  M 57.037038,9.9994806   L 57.037038,9.9994806   C 57.037038,8.7695445 57.886993,7.759597 59.176926,7.759597   C 60.466859,7.759597 61.196821,8.6595502 61.196821,9.9494832   C 61.196821,10.059478 61.196821,10.119474 61.196821,10.229469   L 58.106982,10.229469   C 58.166979,11.069425 58.616955,11.399408 59.236923,11.399408   C 59.6869,11.399408 60.016883,11.239416 60.186874,10.78944   L 61.196821,10.78944   C 60.916836,11.679393 60.186874,12.239364 59.176926,12.239364   C 57.936991,12.239364 57.037038,11.399408 57.037038,9.9994806   z  M 58.106982,9.5595035   L 58.106982,9.5595035   L 60.186874,9.5595035   C 60.136877,8.8795388 59.736897,8.5495559 59.176926,8.5495559   C 58.666953,8.5495559 58.226976,8.9395357 58.106982,9.5595035   z "
     style="fill:#ffffff;fill-rule:evenodd;fill-opacity:1;stroke:none;" />
  <path
     id="path15"
     d="  M 62.156772,7.8795907   L 62.156772,7.8795907   L 63.14672,7.8795907   L 63.14672,8.5395565   C 63.366709,8.1495767 63.806686,7.759597 64.466652,7.759597   C 65.4566,7.759597 65.996572,8.3695653 65.996572,9.4295102   L 65.996572,12.079373   L 65.016623,12.079373   L 65.016623,9.6494988   C 65.016623,8.9795336 64.736638,8.6495507 64.186666,8.6495507   C 63.586697,8.6495507 63.206717,9.0395305 63.206717,9.6994962   L 63.206717,12.079373   L 62.156772,12.079373   L 62.156772,7.8795907   z "
     style="fill:#ffffff;fill-rule:evenodd;fill-opacity:1;stroke:none;" />
  <path
     id="path17"
     d="  M 68.626436,12.079373   L 68.626436,12.079373   C 67.796479,12.079373 67.476495,11.699392 67.476495,10.889434   L 67.476495,8.759545   L 66.796531,8.759545   L 66.796531,7.9495871   L 67.476495,7.9495871   L 67.476495,6.7996468   L 68.476443,6.7996468   L 68.476443,7.9495871   L 69.356398,7.9495871   L 69.356398,8.759545   L 68.476443,8.759545   L 68.476443,10.77944   C 68.476443,11.099424 68.576438,11.269415 68.946419,11.269415   L 69.356398,11.269415   L 69.356398,12.079373   L 68.626436,12.079373   z "
     style="fill:#ffffff;fill-rule:evenodd;fill-opacity:1;stroke:none;" />
  <path
     id="path19"
     d="  M 70.156356,9.9994806   L 70.156356,9.9994806   C 70.156356,8.7695445 70.976314,7.759597 72.216249,7.759597   C 73.406187,7.759597 74.156148,8.6595502 74.156148,9.9494832   C 74.156148,10.059478 74.156148,10.119474 74.156148,10.229469   L 71.186303,10.229469   C 71.186303,11.069425 71.676277,11.399408 72.216249,11.399408   C 72.706224,11.399408 73.026207,11.239416 73.186199,10.78944   L 74.156148,10.78944   C 73.886162,11.679393 73.186199,12.239364 72.216249,12.239364   C 70.976314,12.239364 70.156356,11.399408 70.156356,9.9994806   z  M 71.186303,9.5595035   L 71.186303,9.5595035   L 73.186199,9.5595035   C 73.136201,8.8795388 72.756221,8.5495559 72.216249,8.5495559   C 71.676277,8.5495559 71.296297,8.9395357 71.186303,9.5595035   z "
     style="fill:#ffffff;fill-rule:evenodd;fill-opacity:1;stroke:none;" />
  <path
     id="path21"
     d="  M 75.116099,7.9195887   L 75.116099,7.9195887   L 76.076049,7.9195887   L 76.076049,8.9095372   C 76.23604,8.1995741 76.716015,7.9195887 77.415979,7.9195887   L 77.515974,7.9195887   L 77.515974,8.9095372   L 77.19599,8.9095372   C 76.456029,8.9095372 76.136046,9.2895175 76.136046,10.109475   L 76.136046,12.079373   L 75.116099,12.079373   L 75.116099,7.9195887   z "
     style="fill:#ffffff;fill-rule:evenodd;fill-opacity:1;stroke:none;" />
  <path
     id="path23"
     d="  M 80.495819,8.6795492   L 80.495819,8.6795492   L 79.755858,8.6795492   L 79.755858,7.8395928   L 80.495819,7.8395928   L 80.495819,7.50961   C 80.495819,6.4996624 81.115787,6.1596801 81.965743,6.1596801   L 82.475716,6.1596801   L 82.475716,6.9996364   L 82.085737,6.9996364   C 81.685757,6.9996364 81.515766,7.1096307 81.515766,7.50961   L 81.515766,7.8395928   L 82.475716,7.8395928   L 82.475716,8.6795492   L 81.515766,8.6795492   L 81.515766,12.079373   L 80.495819,12.079373   L 80.495819,8.6795492   z "
     style="fill:#ffffff;fill-rule:evenodd;fill-opacity:1;stroke:none;" />
  <path
     id="path25"
     d="  M 82.955691,9.9994806   L 82.955691,9.9994806   C 82.955691,8.7195471 83.835646,7.759597 85.145578,7.759597   C 86.45551,7.759597 87.275467,8.6595502 87.275467,9.9994806   C 87.275467,11.289414 86.45551,12.239364 85.145578,12.239364   C 83.775649,12.239364 82.955691,11.349411 82.955691,9.9994806   z  M 86.24552,9.9994806   L 86.24552,9.9994806   C 86.24552,9.1095269 85.745546,8.6595502 85.145578,8.6595502   C 84.495611,8.6595502 83.995637,9.1095269 83.995637,9.9994806   C 83.995637,10.899434 84.495611,11.349411 85.145578,11.349411   C 85.745546,11.349411 86.24552,10.899434 86.24552,9.9994806   z "
     style="fill:#ffffff;fill-rule:evenodd;fill-opacity:1;stroke:none;" />
  <path
     id="path27"
     d="  M 88.235417,7.9195887   L 88.235417,7.9195887   L 89.195367,7.9195887   L 89.195367,8.9095372   C 89.355359,8.1995741 89.835334,7.9195887 90.475301,7.9195887   L 90.635292,7.9195887   L 90.635292,8.9095372   L 90.315309,8.9095372   C 89.575348,8.9095372 89.255364,9.2895175 89.255364,10.109475   L 89.255364,12.079373   L 88.235417,12.079373   L 88.235417,7.9195887   z "
     style="fill:#ffffff;fill-rule:evenodd;fill-opacity:1;stroke:none;" />
  <path
     id="path29"
     d="  M 93.035168,10.349462   L 93.035168,10.349462   L 94.14511,10.349462   C 94.195108,10.959431 94.585087,11.349411 95.415044,11.349411   C 96.135007,11.349411 96.574984,11.019428 96.574984,10.459457   C 96.574984,9.9594827 96.245001,9.7894915 95.69503,9.6794973   L 94.975067,9.569503   C 93.815127,9.3395149 93.205159,8.8395409 93.205159,7.8895902   C 93.205159,6.8296453 93.975119,6.1596801 95.355047,6.1596801   C 96.684978,6.1596801 97.454938,6.8296453 97.564933,7.8895902   L 96.514987,7.8895902   C 96.404993,7.3396188 96.025013,7.0596333 95.355047,7.0596333   C 94.645084,7.0596333 94.255104,7.3396188 94.255104,7.8395928   C 94.255104,8.27957 94.585087,8.509558 95.195056,8.6195523   L 95.915018,8.7295466   C 97.014961,8.9495352 97.674927,9.3995118 97.674927,10.349462   C 97.674927,11.519402 96.794973,12.239364 95.415044,12.239364   C 93.925122,12.239364 93.155162,11.519402 93.035168,10.349462   z "
     style="fill:#ffffff;fill-rule:evenodd;fill-opacity:1;stroke:none;" />
  <path
     id="path31"
     d="  M 98.474885,9.9994806   L 98.474885,9.9994806   C 98.474885,8.7195471 99.304842,7.759597 100.50478,7.759597   C 101.60472,7.759597 102.31469,8.3795648 102.47468,9.3895123   L 101.49473,9.3895123   C 101.38473,8.8795388 101.05475,8.6595502 100.56478,8.6595502   C 99.954808,8.6595502 99.524831,9.1095269 99.524831,9.9994806   C 99.524831,10.899434 99.954808,11.399408 100.56478,11.399408   C 101.05475,11.399408 101.38473,11.069425 101.54473,10.559452   L 102.47468,10.559452   C 102.31469,11.569399 101.60472,12.239364 100.50478,12.239364   C 99.244845,12.239364 98.474885,11.399408 98.474885,9.9994806   z "
     style="fill:#ffffff;fill-rule:evenodd;fill-opacity:1;stroke:none;" />
  <path
     id="path33"
     d="  M 103.27464,6.7596489   L 103.27464,6.7596489   C 103.27464,6.4396655 103.57462,6.1596801 103.9146,6.1596801   C 104.26458,6.1596801 104.55457,6.4396655 104.55457,6.7596489   C 104.55457,7.0896318 104.26458,7.3096203 103.9146,7.3096203   C 103.57462,7.3096203 103.27464,7.0896318 103.27464,6.7596489   z  M 103.33463,7.9595866   L 103.33463,7.9595866   L 104.44458,7.9595866   L 104.44458,12.079373   L 103.33463,12.079373   L 103.33463,7.9595866   z "
     style="fill:#ffffff;fill-rule:evenodd;fill-opacity:1;stroke:none;" />
  <path
     id="path35"
     d="  M 105.35453,9.9994806   L 105.35453,9.9994806   C 105.35453,8.7695445 106.17449,7.759597 107.41442,7.759597   C 108.65436,7.759597 109.35432,8.6595502 109.35432,9.9494832   C 109.35432,10.059478 109.35432,10.119474 109.35432,10.229469   L 106.38447,10.229469   C 106.44447,11.069425 106.87445,11.399408 107.46442,11.399408   C 107.9044,11.399408 108.22438,11.239416 108.38437,10.78944   L 109.35432,10.78944   C 109.08433,11.679393 108.38437,12.239364 107.41442,12.239364   C 106.22448,12.239364 105.35453,11.399408 105.35453,9.9994806   z  M 106.38447,9.5595035   L 106.38447,9.5595035   L 108.38437,9.5595035   C 108.33437,8.8795388 107.95439,8.5495559 107.41442,8.5495559   C 106.92445,8.5495559 106.49447,8.9395357 106.38447,9.5595035   z "
     style="fill:#ffffff;fill-rule:evenodd;fill-opacity:1;stroke:none;" />
  <path
     id="path37"
     d="  M 110.47426,7.8795907   L 110.47426,7.8795907   L 111.46421,7.8795907   L 111.46421,8.5395565   C 111.6842,8.1495767 112.12418,7.759597 112.78414,7.759597   C 113.77409,7.759597 114.31406,8.3695653 114.31406,9.4295102   L 114.31406,12.079373   L 113.33411,12.079373   L 113.33411,9.6494988   C 113.33411,8.9795336 113.05413,8.6495507 112.50416,8.6495507   C 111.90419,8.6495507 111.52421,9.0395305 111.52421,9.6994962   L 111.52421,12.079373   L 110.47426,12.079373   L 110.47426,7.8795907   z "
     style="fill:#ffffff;fill-rule:evenodd;fill-opacity:1;stroke:none;" />
  <path
     id="path39"
     d="  M 116.90393,12.079373   L 116.90393,12.079373   C 116.01397,12.079373 115.68399,11.699392 115.68399,10.889434   L 115.68399,8.759545   L 114.95403,8.759545   L 114.95403,7.9495871   L 115.68399,7.9495871   L 115.68399,6.7996468   L 116.73394,6.7996468   L 116.73394,7.9495871   L 117.67389,7.9495871   L 117.67389,8.759545   L 116.73394,8.759545   L 116.73394,10.77944   C 116.73394,11.099424 116.84393,11.269415 117.23391,11.269415   L 117.67389,11.269415   L 117.67389,12.079373   L 116.90393,12.079373   z "
     style="fill:#ffffff;fill-rule:evenodd;fill-opacity:1;stroke:none;" />
  <path
     id="path41"
     d="  M 118.63384,6.7596489   L 118.63384,6.7596489   C 118.63384,6.4396655 118.93382,6.1596801 119.2738,6.1596801   C 119.62379,6.1596801 119.91377,6.4396655 119.91377,6.7596489   C 119.91377,7.0896318 119.62379,7.3096203 119.2738,7.3096203   C 118.93382,7.3096203 118.63384,7.0896318 118.63384,6.7596489   z  M 118.75383,7.9595866   L 118.75383,7.9595866   L 119.80378,7.9595866   L 119.80378,12.079373   L 118.75383,12.079373   L 118.75383,7.9595866   z "
     style="fill:#ffffff;fill-rule:evenodd;fill-opacity:1;stroke:none;" />
  <path
     id="path43"
     d="  M 121.2737,8.7695445   L 121.2737,8.7695445   L 120.55374,8.7695445   L 120.55374,7.9595866   L 121.2737,7.9595866   L 121.2737,7.6296037   C 121.2737,6.6496546 121.94367,6.3296712 122.77362,6.3296712   L 123.2636,6.3296712   L 123.2636,7.1396292   L 122.82362,7.1396292   C 122.44364,7.1396292 122.27365,7.2496235 122.27365,7.6296037   L 122.27365,7.9595866   L 123.2636,7.9595866   L 123.2636,8.7695445   L 122.32365,8.7695445   L 122.32365,12.079373   L 121.2737,12.079373   L 121.2737,8.7695445   z  M 123.87357,6.7596489   L 123.87357,6.7596489   C 123.87357,6.4396655 124.09355,6.1596801 124.48353,6.1596801   C 124.81352,6.1596801 125.03351,6.4396655 125.03351,6.7596489   C 125.03351,7.0896318 124.81352,7.3096203 124.48353,7.3096203   C 124.09355,7.3096203 123.87357,7.0896318 123.87357,6.7596489   z  M 123.93356,7.9595866   L 123.93356,7.9595866   L 124.98351,7.9595866   L 124.98351,12.079373   L 123.93356,12.079373   L 123.93356,7.9595866   z "
     style="fill:#ffffff;fill-rule:evenodd;fill-opacity:1;stroke:none;" />
  <path
     id="path45"
     d="  M 125.83346,9.9994806   L 125.83346,9.9994806   C 125.83346,8.7195471 126.73342,7.759597 127.97335,7.759597   C 129.10329,7.759597 129.83326,8.3795648 129.99325,9.3895123   L 128.9833,9.3895123   C 128.81331,8.8795388 128.48333,8.6595502 127.97335,8.6595502   C 127.35339,8.6595502 126.90341,9.1095269 126.90341,9.9994806   C 126.90341,10.899434 127.35339,11.399408 127.97335,11.399408   C 128.48333,11.399408 128.87331,11.069425 128.9833,10.559452   L 129.99325,10.559452   C 129.83326,11.569399 129.10329,12.239364 127.97335,12.239364   C 126.68342,12.239364 125.83346,11.399408 125.83346,9.9994806   z "
     style="fill:#ffffff;fill-rule:evenodd;fill-opacity:1;stroke:none;" />
  <path
     id="path47"
     d="  M 132.39312,9.1795232   L 132.39312,9.1795232   C 132.39312,7.3396188 133.56306,6.1596801 135.23298,6.1596801   C 136.6129,6.1596801 137.61285,6.8896422 137.83284,8.2295726   L 136.7229,8.2295726   C 136.56291,7.5596074 136.06293,7.0596333 135.23298,7.0596333   C 134.23303,7.0596333 133.50307,7.8895902 133.50307,9.1795232   C 133.50307,10.459457 134.17303,11.299413 135.23298,11.299413   C 136.11293,11.299413 136.56291,10.78944 136.7229,10.129474   L 137.83284,10.129474   C 137.61285,11.459405 136.6129,12.239364 135.23298,12.239364   C 133.50307,12.239364 132.39312,11.019428 132.39312,9.1795232   z "
     style="fill:#ffffff;fill-rule:evenodd;fill-opacity:1;stroke:none;" />
  <path
     id="path49"
     d="  M 138.47281,9.9994806   L 138.47281,9.9994806   C 138.47281,8.7195471 139.31276,7.759597 140.6327,7.759597   C 142.02262,7.759597 142.79258,8.6595502 142.79258,9.9994806   C 142.79258,11.289414 141.96263,12.239364 140.6327,12.239364   C 139.25277,12.239364 138.47281,11.349411 138.47281,9.9994806   z  M 141.74264,9.9994806   L 141.74264,9.9994806   C 141.74264,9.1095269 141.30266,8.6595502 140.6327,8.6595502   C 139.97273,8.6595502 139.53275,9.1095269 139.53275,9.9994806   C 139.53275,10.899434 139.97273,11.349411 140.6327,11.349411   C 141.30266,11.349411 141.74264,10.899434 141.74264,9.9994806   z "
     style="fill:#ffffff;fill-rule:evenodd;fill-opacity:1;stroke:none;" />
  <path
     id="path51"
     d="  M 143.75253,7.8795907   L 143.75253,7.8795907   L 144.75248,7.8795907   L 144.75248,8.5395565   C 144.97247,8.1495767 145.41245,7.759597 146.07241,7.759597   C 146.62238,7.759597 147.06236,8.0395824 147.34235,8.5395565   C 147.56234,8.1495767 148.00231,7.759597 148.72228,7.759597   C 149.65223,7.759597 150.31219,8.3695653 150.31219,9.4295102   L 150.31219,12.079373   L 149.27225,12.079373   L 149.27225,9.6494988   C 149.27225,8.9795336 148.99226,8.6495507 148.50229,8.6495507   C 147.94232,8.6495507 147.56234,9.0395305 147.56234,9.6494988   L 147.56234,12.079373   L 146.51239,12.079373   L 146.51239,9.6494988   C 146.51239,8.9795336 146.2424,8.6495507 145.74243,8.6495507   C 145.19246,8.6495507 144.80248,9.0395305 144.80248,9.6494988   L 144.80248,12.079373   L 143.75253,12.079373   L 143.75253,7.8795907   z "
     style="fill:#ffffff;fill-rule:evenodd;fill-opacity:1;stroke:none;" />
  <path
     id="path53"
     d="  M 151.59213,7.8795907   L 151.59213,7.8795907   L 152.51208,7.8795907   L 152.51208,8.7095476   C 152.73207,8.1595762 153.27204,7.759597 153.92201,7.759597   C 155.05195,7.759597 155.75191,8.6595502 155.75191,9.9994806   C 155.75191,11.279414 154.89195,12.229365 153.86201,12.229365   C 153.27204,12.229365 152.84206,11.949379 152.57208,11.5594   L 152.57208,13.67929   L 151.59213,13.67929   L 151.59213,7.8795907   z  M 154.73196,9.9994806   L 154.73196,9.9994806   C 154.73196,9.1095269 154.30199,8.6595502 153.70202,8.6595502   C 153.05205,8.6595502 152.57208,9.1595243 152.57208,9.9994806   C 152.57208,10.889434 153.00205,11.389408 153.70202,11.389408   C 154.30199,11.389408 154.73196,10.889434 154.73196,9.9994806   z "
     style="fill:#ffffff;fill-rule:evenodd;fill-opacity:1;stroke:none;" />
  <path
     id="path55"
     d="  M 156.71186,10.579451   L 156.71186,10.579451   L 156.71186,7.9195887   L 157.73181,7.9195887   L 157.73181,10.419459   C 157.73181,11.029427 157.99179,11.35941 158.53177,11.35941   C 159.01174,11.35941 159.38172,10.96943 159.38172,10.359462   L 159.38172,7.9195887   L 160.39167,7.9195887   L 160.39167,12.12937   L 159.43172,12.12937   L 159.43172,11.469404   C 159.27173,11.859384 158.85175,12.239364 158.15179,12.239364   C 157.30183,12.239364 156.71186,11.639395 156.71186,10.579451   z "
     style="fill:#ffffff;fill-rule:evenodd;fill-opacity:1;stroke:none;" />
  <path
     id="path57"
     d="  M 163.30152,12.079373   L 163.30152,12.079373   C 162.41156,12.079373 162.08158,11.699392 162.08158,10.889434   L 162.08158,8.759545   L 161.35162,8.759545   L 161.35162,7.9495871   L 162.08158,7.9495871   L 162.08158,6.7996468   L 163.13153,6.7996468   L 163.13153,7.9495871   L 164.07148,7.9495871   L 164.07148,8.759545   L 163.13153,8.759545   L 163.13153,10.77944   C 163.13153,11.099424 163.24152,11.269415 163.6315,11.269415   L 164.07148,11.269415   L 164.07148,12.079373   L 163.30152,12.079373   z "
     style="fill:#ffffff;fill-rule:evenodd;fill-opacity:1;stroke:none;" />
  <path
     id="path59"
     d="  M 164.87144,6.7596489   L 164.87144,6.7596489   C 164.87144,6.4396655 165.13142,6.1596801 165.43141,6.1596801   C 165.74139,6.1596801 165.99138,6.4396655 165.99138,6.7596489   C 165.99138,7.0896318 165.74139,7.3096203 165.43141,7.3096203   C 165.13142,7.3096203 164.87144,7.0896318 164.87144,6.7596489   z  M 164.98143,7.9595866   L 164.98143,7.9595866   L 165.89138,7.9595866   L 165.89138,12.079373   L 164.98143,12.079373   L 164.98143,7.9595866   z "
     style="fill:#ffffff;fill-rule:evenodd;fill-opacity:1;stroke:none;" />
  <path
     id="path61"
     d="  M 167.27131,7.8795907   L 167.27131,7.8795907   L 168.26126,7.8795907   L 168.26126,8.5395565   C 168.43125,8.1495767 168.92123,7.759597 169.58119,7.759597   C 170.57114,7.759597 171.11111,8.3695653 171.11111,9.4295102   L 171.11111,12.079373   L 170.07117,12.079373   L 170.07117,9.6494988   C 170.07117,8.9795336 169.80118,8.6495507 169.25121,8.6495507   C 168.70124,8.6495507 168.32126,9.0395305 168.32126,9.6994962   L 168.32126,12.079373   L 167.27131,12.079373   L 167.27131,7.8795907   z "
     style="fill:#ffffff;fill-rule:evenodd;fill-opacity:1;stroke:none;" />
  <path
     id="path63"
     d="  M 172.03106,12.379357   L 172.03106,12.379357   L 173.09101,12.379357   C 173.15101,12.829334 173.49099,13.059322 174.10096,13.059322   C 174.83092,13.059322 175.2209,12.719339 175.2209,11.92938   L 175.2209,11.259415   C 174.94091,11.709392 174.50094,11.989377 173.88097,11.989377   C 172.70103,11.989377 171.91107,11.199418 171.91107,9.9594827   C 171.91107,8.6695497 172.76103,7.759597 173.88097,7.759597   C 174.50094,7.759597 175.00091,8.0495819 175.2209,8.4995585   L 175.2209,7.8795907   L 176.23085,7.8795907   L 176.23085,11.819386   C 176.23085,13.169316 175.45089,13.839281 174.05096,13.839281   C 172.87102,13.839281 172.14106,13.339307 172.03106,12.379357   z  M 175.2209,9.8994858   L 175.2209,9.8994858   C 175.2209,9.1195263 174.72093,8.6095528 174.10096,8.6095528   C 173.43099,8.6095528 172.98102,9.1195263 172.98102,9.8994858   C 172.98102,10.689445 173.43099,11.199418 174.10096,11.199418   C 174.72093,11.199418 175.2209,10.689445 175.2209,9.8994858   z "
     style="fill:#ffffff;fill-rule:evenodd;fill-opacity:1;stroke:none;" />
  <path
     id="path65"
     d="  M 177.35079,13.199314   L 177.35079,13.199314   C 177.50078,12.929328 177.71077,12.32936 177.76077,12.059374   C 177.45078,12.059374 177.1908,11.839385 177.1908,11.459405   C 177.1908,11.129422 177.45078,10.799439 177.81076,10.799439   C 178.22074,10.799439 178.47073,11.079425 178.47073,11.509402   C 178.47073,11.999377 178.17075,12.659342 177.91076,13.199314   L 177.35079,13.199314   z "
     style="fill:#ffffff;fill-rule:evenodd;fill-opacity:1;stroke:none;" />
  <path
     id="path67"
     d="  M 52.56727,16.469145   L 52.56727,16.469145   L 50.797362,16.469145   L 50.797362,15.59919   L 55.437121,15.59919   L 55.437121,16.469145   L 53.677212,16.469145   L 53.677212,21.358891   L 52.56727,21.358891   L 52.56727,16.469145   z "
     style="fill:#ffffff;fill-rule:evenodd;fill-opacity:1;stroke:none;" />
  <path
     id="path69"
     d="  M 56.237079,15.59919   L 56.237079,15.59919   L 57.287025,15.59919   L 57.287025,17.779077   C 57.507013,17.449094 57.94699,17.12911 58.546959,17.12911   C 59.536908,17.12911 60.07688,17.71908 60.07688,18.759026   L 60.07688,21.358891   L 59.036934,21.358891   L 59.036934,18.919017   C 59.036934,18.319049 58.816945,17.999065 58.216976,17.999065   C 57.667005,17.999065 57.287025,18.379045 57.287025,18.969015   L 57.287025,21.358891   L 56.237079,21.358891   L 56.237079,15.59919   z "
     style="fill:#ffffff;fill-rule:evenodd;fill-opacity:1;stroke:none;" />
  <path
     id="path71"
     d="  M 61.03683,19.308997   L 61.03683,19.308997   C 61.03683,18.009065 61.826789,17.039115 63.116722,17.039115   C 64.416654,17.039115 65.196614,17.89907 65.196614,19.259   C 65.196614,19.308997 65.196614,19.428991 65.146616,19.478988   L 62.056777,19.478988   C 62.106774,20.388941 62.616748,20.728923 63.176719,20.728923   C 63.686692,20.728923 64.016675,20.558932 64.136669,20.108956   L 65.146616,20.108956   C 64.916628,21.008909 64.186666,21.518882 63.176719,21.518882   C 61.886786,21.518882 61.03683,20.728923 61.03683,19.308997   z  M 62.106774,18.799024   L 62.106774,18.799024   L 64.136669,18.799024   C 64.076672,18.179056 63.686692,17.839073 63.176719,17.839073   C 62.616748,17.839073 62.226768,18.179056 62.106774,18.799024   z "
     style="fill:#ffffff;fill-rule:evenodd;fill-opacity:1;stroke:none;" />
  <path
     id="path73"
     d="  M 65.83658,19.308997   L 65.83658,19.308997   C 65.83658,18.009065 66.716535,17.039115 67.976469,17.039115   C 69.336399,17.039115 70.156356,17.949068 70.156356,19.308997   C 70.156356,20.618929 69.286401,21.518882 67.976469,21.518882   C 66.656538,21.518882 65.83658,20.618929 65.83658,19.308997   z  M 69.12641,19.308997   L 69.12641,19.308997   C 69.12641,18.409044 68.626436,17.89907 67.976469,17.89907   C 67.3765,17.89907 66.876526,18.409044 66.876526,19.308997   C 66.876526,20.21895 67.3765,20.668926 67.976469,20.668926   C 68.626436,20.668926 69.12641,20.21895 69.12641,19.308997   z "
     style="fill:#ffffff;fill-rule:evenodd;fill-opacity:1;stroke:none;" />
  <path
     id="path75"
     d="  M 71.116306,17.199107   L 71.116306,17.199107   L 72.106255,17.199107   L 72.106255,18.189055   C 72.266247,17.479092 72.756221,17.199107 73.416187,17.199107   L 73.516182,17.199107   L 73.516182,18.189055   L 73.246196,18.189055   C 72.486235,18.189055 72.156252,18.569036 72.156252,19.388993   L 72.156252,21.358891   L 71.116306,21.358891   L 71.116306,17.199107   z "
     style="fill:#ffffff;fill-rule:evenodd;fill-opacity:1;stroke:none;" />
  <path
     id="path77"
     d="  M 75.676069,21.468885   L 75.676069,21.468885   L 73.996157,17.199107   L 75.136097,17.199107   L 76.216041,20.248948   L 77.235988,17.199107   L 78.315932,17.199107   L 76.05605,22.958808   L 75.026103,22.958808   L 75.676069,21.468885   z "
     style="fill:#ffffff;fill-rule:evenodd;fill-opacity:1;stroke:none;" />
  <path
     id="path79"
     d="  M 80.555816,20.328944   L 80.555816,20.328944   C 80.555816,19.478988 81.165784,19.139006 82.20573,18.969015   L 82.705704,18.85902   C 83.035687,18.799024 83.255676,18.749026 83.255676,18.459041   C 83.255676,18.119059 82.97569,17.839073 82.485716,17.839073   C 81.935744,17.839073 81.715756,18.119059 81.655759,18.459041   L 80.66581,18.459041   C 80.725807,17.669082 81.385773,17.039115 82.485716,17.039115   C 83.695653,17.039115 84.235625,17.559088 84.235625,18.579035   L 84.235625,21.468885   L 83.305673,21.468885   L 83.305673,20.898915   C 83.085685,21.348891 82.535713,21.518882 82.045739,21.518882   C 81.105787,21.518882 80.555816,21.128903 80.555816,20.328944   z  M 83.255676,19.878967   L 83.255676,19.878967   L 83.255676,19.428991   C 83.145681,19.478988 83.035687,19.478988 82.865696,19.538985   L 82.425719,19.648979   C 81.875747,19.768973 81.605761,19.878967 81.605761,20.21895   C 81.605761,20.618929 81.82575,20.78892 82.265727,20.78892   C 82.815699,20.78892 83.255676,20.448938 83.255676,19.878967   z "
     style="fill:#ffffff;fill-rule:evenodd;fill-opacity:1;stroke:none;" />
  <path
     id="path81"
     d="  M 85.515558,17.159109   L 85.515558,17.159109   L 86.505507,17.159109   L 86.505507,17.819074   C 86.675498,17.429095 87.165473,17.039115 87.825438,17.039115   C 88.815387,17.039115 89.355359,17.649083 89.355359,18.709028   L 89.355359,21.358891   L 88.315413,21.358891   L 88.315413,18.86902   C 88.315413,18.259052 88.095424,17.929069 87.495456,17.929069   C 86.945484,17.929069 86.565504,18.319049 86.565504,18.929017   L 86.565504,21.358891   L 85.515558,21.358891   L 85.515558,17.159109   z "
     style="fill:#ffffff;fill-rule:evenodd;fill-opacity:1;stroke:none;" />
  <path
     id="path83"
     d="  M 90.315309,19.368994   L 90.315309,19.368994   C 90.315309,18.039063 91.135266,17.149109 92.155214,17.149109   C 92.755182,17.149109 93.235157,17.429095 93.455146,17.819074   L 93.455146,15.59919   L 94.475093,15.59919   L 94.475093,21.468885   L 93.505143,21.468885   L 93.505143,20.638928   C 93.295154,21.188899 92.755182,21.518882 92.155214,21.518882   C 91.025272,21.518882 90.315309,20.638928 90.315309,19.368994   z  M 93.455146,19.308997   L 93.455146,19.308997   C 93.455146,18.47904 93.025168,17.979066 92.375202,17.979066   C 91.775233,17.979066 91.295258,18.47904 91.295258,19.368994   C 91.295258,20.198951 91.725236,20.688925 92.375202,20.688925   C 93.025168,20.688925 93.455146,20.198951 93.455146,19.308997   z "
     style="fill:#ffffff;fill-rule:evenodd;fill-opacity:1;stroke:none;" />
  <path
     id="path85"
     d="  M 97.514935,15.59919   L 97.514935,15.59919   L 99.72482,15.59919   C 101.42473,15.59919 102.63467,16.639136 102.63467,18.429043   C 102.63467,20.21895 101.42473,21.358891 99.614826,21.358891   L 97.514935,21.358891   L 97.514935,15.59919   z  M 99.614826,20.438938   L 99.614826,20.438938   C 100.82476,20.438938 101.53473,19.678978 101.53473,18.47904   C 101.53473,17.229105 100.82476,16.469145 99.614826,16.469145   L 98.564881,16.469145   L 98.564881,20.438938   L 99.614826,20.438938   z "
     style="fill:#ffffff;fill-rule:evenodd;fill-opacity:1;stroke:none;" />
  <path
     id="path87"
     d="  M 103.43463,20.328944   L 103.43463,20.328944   C 103.43463,19.478988 104.09459,19.139006 105.08454,18.969015   L 105.58452,18.85902   C 105.9145,18.799024 106.13449,18.749026 106.13449,18.459041   C 106.13449,18.119059 105.8545,17.839073 105.36453,17.839073   C 104.86455,17.839073 104.59457,18.119059 104.53457,18.459041   L 103.54462,18.459041   C 103.60462,17.669082 104.26458,17.039115 105.41452,17.039115   C 106.57446,17.039115 107.11444,17.559088 107.11444,18.579035   L 107.11444,21.468885   L 106.24448,21.468885   L 106.24448,20.898915   C 105.9645,21.348891 105.47452,21.518882 104.92455,21.518882   C 103.9846,21.518882 103.43463,21.128903 103.43463,20.328944   z  M 106.13449,19.878967   L 106.13449,19.878967   L 106.13449,19.428991   C 106.07449,19.478988 105.9145,19.478988 105.74451,19.538985   L 105.30453,19.648979   C 104.75456,19.768973 104.48457,19.878967 104.48457,20.21895   C 104.48457,20.618929 104.70456,20.78892 105.14454,20.78892   C 105.69451,20.78892 106.13449,20.448938 106.13449,19.878967   z "
     style="fill:#ffffff;fill-rule:evenodd;fill-opacity:1;stroke:none;" />
  <path
     id="path89"
     d="  M 109.8243,21.358891   L 109.8243,21.358891   C 108.95434,21.358891 108.62436,20.918913 108.62436,20.138954   L 108.62436,17.979066   L 107.91439,17.979066   L 107.91439,17.149109   L 108.68435,17.149109   L 108.68435,15.919173   L 109.6643,15.919173   L 109.6643,17.149109   L 110.63425,17.149109   L 110.63425,17.979066   L 109.6643,17.979066   L 109.6643,19.978962   C 109.6643,20.368942 109.7643,20.478936 110.15428,20.478936   L 110.63425,20.478936   L 110.63425,21.358891   L 109.8243,21.358891   z "
     style="fill:#ffffff;fill-rule:evenodd;fill-opacity:1;stroke:none;" />
  <path
     id="path91"
     d="  M 111.27422,20.328944   L 111.27422,20.328944   C 111.27422,19.478988 111.93419,19.139006 112.92413,18.969015   L 113.42411,18.85902   C 113.75409,18.799024 113.97408,18.749026 113.97408,18.459041   C 113.97408,18.119059 113.69409,17.839073 113.20412,17.839073   C 112.70415,17.839073 112.43416,18.119059 112.37416,18.459041   L 111.38421,18.459041   C 111.44421,17.669082 112.10418,17.039115 113.25412,17.039115   C 114.41406,17.039115 114.95403,17.559088 114.95403,18.579035   L 114.95403,21.468885   L 114.08407,21.468885   L 114.08407,20.898915   C 113.80409,21.348891 113.31411,21.518882 112.76414,21.518882   C 111.82419,21.518882 111.27422,21.128903 111.27422,20.328944   z  M 113.97408,19.878967   L 113.97408,19.878967   L 113.97408,19.428991   C 113.91408,19.478988 113.75409,19.478988 113.5841,19.538985   L 113.14412,19.648979   C 112.59415,19.768973 112.32417,19.878967 112.32417,20.21895   C 112.32417,20.618929 112.54415,20.78892 112.98413,20.78892   C 113.5341,20.78892 113.97408,20.448938 113.97408,19.878967   z "
     style="fill:#ffffff;fill-rule:evenodd;fill-opacity:1;stroke:none;" />
</svg>
